<svg width="43" height="45" viewBox="0 0 43 45" fill="none" xmlns="http://www.w3.org/2000/svg">
<mask id="mask0_412_1464" style="mask-type:luminance" maskUnits="userSpaceOnUse" x="0" y="0" width="43" height="45">
<path d="M42.8571 0H0V44.135H42.8571V0Z" fill="white"/>
</mask>
<g mask="url(#mask0_412_1464)">
<path fill-rule="evenodd" clip-rule="evenodd" d="M26.0496 31.9472C25.7353 31.777 25.1724 31.53 24.3624 31.2059C25.3499 29.4805 25.8185 30.1098 26.4433 27.6245C26.7529 29.363 26.6221 30.8039 26.0496 31.9472ZM24.6922 32.6632C26.0385 32.7807 26.9951 33.1632 27.5597 33.812C26.8472 33.4068 25.8908 33.0243 24.6922 32.6632ZM30.0226 31.9472C29.4508 30.8039 29.3197 29.363 29.6296 27.6245C30.2544 30.1098 30.7222 29.4805 31.7103 31.2059C30.9004 31.53 30.3376 31.777 30.0226 31.9472ZM31.3799 32.6632C30.1813 33.0243 29.2254 33.4068 28.5124 33.812C29.0778 33.1632 30.0337 32.7807 31.3799 32.6632ZM28.036 20.5293C27.5844 20.5545 27.1731 20.79 26.9319 21.163C26.6897 21.5355 26.6472 21.9984 26.8181 22.4061C26.5522 22.2039 26.4922 22.2611 26.6406 22.5788C26.7053 22.8627 26.8408 23.0248 27.0467 23.0675C27.1163 23.4255 27.2706 23.7339 27.5094 23.9934C27.5985 24.3891 27.4094 24.5875 26.9383 24.5863C25.6385 24.4782 24.9833 25.1736 24.9717 26.6734C24.909 26.9932 24.871 27.512 24.8569 28.2293C24.7799 28.6313 24.1676 29.4925 23.0169 30.8109C22.9587 30.8755 22.9129 30.9 22.8774 30.885C22.6296 30.7091 22.4881 30.758 22.4521 31.0327C22.4733 31.4955 22.0803 31.8686 21.2729 32.1505C21.2097 32.3107 21.3297 32.4055 21.6337 32.4345C22.1262 32.373 22.5069 32.2555 22.776 32.0829C22.5204 33.1411 23.0149 33.898 24.2604 34.3554C26.429 34.8591 27.6876 35.2122 28.036 35.4175C28.3853 35.2122 29.6431 34.8591 31.8122 34.3554C33.0572 33.898 33.5522 33.1411 33.2962 32.0829C33.5653 32.2555 33.946 32.373 34.4385 32.4345C34.7431 32.4055 34.8631 32.3107 34.7999 32.1505C33.9919 31.8686 33.5988 31.4955 33.6208 31.0327C33.5846 30.758 33.4426 30.7091 33.1947 30.885C33.1599 30.9 33.1135 30.8755 33.056 30.8109C31.9053 29.4925 31.2928 28.6313 31.216 28.2293C31.2012 27.512 31.1629 26.9932 31.101 26.6734C31.0888 25.1736 30.4337 24.4782 29.1346 24.5863C28.6633 24.5875 28.4737 24.3891 28.5633 23.9934C28.8015 23.7339 28.9563 23.4255 29.0262 23.0675C29.2321 23.0248 29.3676 22.8627 29.4321 22.5788C29.5799 22.2611 29.5199 22.2039 29.2546 22.4061C29.4256 21.9984 29.3829 21.5355 29.141 21.163C28.8996 20.79 28.4878 20.5545 28.036 20.5293Z" fill="#333333"/>
<path fill-rule="evenodd" clip-rule="evenodd" d="M30.5762 39.1267C31.2139 39.4276 31.7082 39.5576 32.0574 39.5179C31.6992 39.1996 31.2628 38.9765 30.7891 38.871C30.8362 39.0229 30.7646 39.1085 30.5762 39.1267ZM33.7896 34.9981C32.6169 34.4824 32.0548 34.5615 31.0164 35.0967C30.318 35.4553 29.7107 35.6231 29.1949 35.5967C30.5116 36.4692 32.0426 36.2694 33.7896 34.9981ZM35.2708 35.8529C34.1523 35.0753 33.3521 36.309 31.9573 36.5376C33.0448 37.199 33.7103 35.8215 35.2708 35.8529ZM28.5555 38.871C29.0008 38.8497 29.4776 38.8899 29.9857 38.9929C29.8133 37.1626 28.8046 36.1004 26.9607 35.8046C27.4776 36.4188 27.6371 37.0658 27.4382 37.7467C27.4499 38.4628 27.8223 38.837 28.5555 38.871ZM23.553 37.3096C24.6307 37.2944 25.6208 37.6192 26.5217 38.2844C26.7799 36.6199 26.3707 35.7694 25.2903 35.7304C23.6207 35.8517 22.7926 36.1594 22.8082 36.6538C22.8139 36.8779 23.3007 37.3133 23.553 37.3096ZM26.7728 39.4451C26.2701 38.6519 25.3619 38.0174 24.3746 38.1079C23.551 38.1838 22.8649 38.0796 22.3164 37.7951C23.156 39.1631 24.6417 39.7128 26.7728 39.4451ZM27.6067 40.8194C26.8639 39.3133 25.7912 40.5499 24.3499 39.9149C24.7057 40.994 26.4482 39.9872 27.6067 40.8194ZM21.1928 41.1919C22.3073 39.9771 22.0357 38.5274 20.3769 36.8422C20.4092 37.6417 20.273 38.2253 19.9676 38.594C19.7257 38.8847 19.7619 39.1945 19.9994 39.4206C20.6228 40.0135 20.9708 40.2842 21.1928 41.1919ZM17.7527 39.8113C18.0148 39.131 18.5201 39.1412 18.9319 38.6569C19.8116 37.6237 19.8207 36.7913 18.9571 36.1581C17.6501 35.4829 16.7498 35.3574 16.2586 35.7801C15.974 36.447 16.771 36.7367 16.7646 37.3378C16.7633 37.4049 16.7555 37.4703 16.7407 37.5337C16.5329 38.4163 17.0796 39.2378 17.7527 39.8113ZM15.3796 34.7292C16.0469 34.5363 16.653 34.5037 17.2009 34.6313C16.6187 33.4385 15.5015 32.779 13.8487 32.6521C14.7445 33.3412 15.255 34.0333 15.3796 34.7292ZM21.4432 36.0608C21.9219 35.6244 22.4576 35.3562 23.0501 35.2544C21.8587 34.5879 20.7958 34.4572 19.8612 34.8637C20.2485 35.4528 20.7758 35.8522 21.4432 36.0608ZM13.435 31.531C12.0951 31.2017 11.1554 30.2099 10.5655 28.8426C11.107 30.4951 12.0641 31.3908 13.435 31.531ZM33.9026 34.1915C35.3605 33.3128 37.0837 32.7815 39.0723 32.5962C40.5373 32.1685 41.7983 31.2224 42.8562 29.7578C42.5735 30.6478 41.8739 31.5465 40.7587 32.4554C40.4289 32.7713 40.1067 32.9824 39.7951 33.0887C40.4173 33.4397 41.0362 33.6665 41.6507 33.7683C41.6771 33.7738 41.6978 33.7933 41.7028 33.8185C41.7092 33.8442 41.6983 33.8706 41.6758 33.8856C41.6544 33.8996 41.6255 33.9001 41.6028 33.8856C40.4966 33.7199 39.5324 33.6733 38.7108 33.7449C37.1483 33.7506 35.8466 34.0792 34.8055 34.7304C35.2933 35.3956 36.033 35.8021 37.0237 35.9497C38.1332 36.0615 39.1219 36.0458 39.988 35.9031C39.0716 36.231 38.0751 36.3799 36.9992 36.3492C37.5653 37.0281 37.926 37.716 38.0835 38.4126C36.5119 36.464 35.1301 35.9717 33.938 36.9351C35.2346 37.7617 35.9182 38.7862 35.9866 40.0079C33.7096 35.9321 32.0676 38.3083 30.2024 36.9351C30.3562 37.6212 30.9312 38.204 31.9283 38.6851C33.5276 39.5946 33.3824 40.3999 35.4723 39.9331C34.6939 40.3897 33.7935 40.5806 32.7732 40.5079C33.1998 40.8797 33.5301 41.3281 33.7657 41.8521C31.9832 40.2867 29.9541 39.5746 27.6771 39.714C27.848 40.8521 28.9157 41.8703 30.8776 42.7685C30.0798 42.7194 29.3939 42.4883 28.8194 42.0712C28.9589 42.4763 28.9717 42.9406 28.8567 43.4637C28.4044 41.6579 27.4382 40.876 25.9564 41.119C26.5462 42.1228 26.6548 43.1208 26.283 44.1119C26.0435 42.2653 25.391 41.1737 24.3255 40.8376C23.4974 40.5035 22.903 40.0556 22.5423 39.4935C22.3976 40.0538 22.6655 40.8358 23.3458 41.8396C23.7149 42.4551 24.0073 43.1717 24.2242 43.9901C24.2196 44.0567 24.1719 44.1138 24.1048 44.1315C24.0369 44.149 23.9667 44.1226 23.928 44.0674C23.4387 42.8915 22.8805 42.0065 22.2537 41.4117C21.083 41.7006 20.3426 42.3476 20.0315 43.3551C20.0014 43.3928 19.951 43.4122 19.9012 43.4053C19.8515 43.3972 19.8103 43.3633 19.7928 43.3179C19.8787 42.6949 20.1542 42.1128 20.5835 41.6442C20.3512 40.7171 19.9644 40.0996 19.423 39.7919C18.7532 39.4106 18.1819 40.0744 18.0851 40.6919C18.4439 41.109 18.666 41.9117 18.7512 43.0983C18.7176 43.1453 18.6614 43.1735 18.6026 43.171C18.5426 43.1685 18.4898 43.136 18.4614 43.0856C18.1955 41.8878 17.8817 41.1629 17.5197 40.9112C17.5268 41.4112 17.3087 41.8263 16.8672 42.1567C16.8524 42.1862 16.8207 42.2031 16.7879 42.2001C16.7543 42.1976 16.7265 42.1754 16.7162 42.1447C16.7052 42.114 16.7162 42.0806 16.7414 42.0594C17.3151 40.5387 17.1815 39.5738 16.3406 39.1637C16.1625 40.1128 15.7281 40.9104 15.0343 41.5587C15.9236 39.2762 15.9611 37.7128 15.1472 36.8674C15.0168 37.3246 14.7529 37.6701 14.356 37.9049C14.1707 38.0144 13.981 38.111 14.0055 38.2844C14.1552 39.3301 14.2017 39.7567 14.0552 40.8747C13.981 39.7203 13.8003 39.0162 13.5157 38.7612C13.1755 39.0374 13.1297 39.616 13.3775 40.496C12.9716 39.9771 12.8115 39.3151 12.9374 38.6756C13.1832 37.9685 13.6215 37.3383 14.205 36.8547C14.4618 36.6638 14.5612 36.3335 14.4515 36.0381C14.3431 35.7429 14.05 35.5496 13.7287 35.5603C12.4469 36.4271 11.7918 37.9338 12.0461 39.4326C11.6285 38.7662 11.5194 37.9583 11.7453 37.209C11.3716 37.5803 10.9231 37.8717 10.4274 38.0645C11.3658 37.2367 11.9222 36.3887 12.0971 35.5231C12.4294 34.7978 12.3126 33.9517 11.795 33.3367C11.8144 34.1326 11.5214 34.7028 10.9166 35.0463C10.3429 35.3654 9.89883 36.1801 9.58646 37.4904C9.34057 36.3145 9.69232 34.9296 10.641 33.3367C9.5916 34.1538 8.61708 34.4792 7.71606 34.314C9.54965 33.4278 10.4784 32.5679 10.5042 31.7344C8.41249 31.4347 7.13653 30.3426 6.67892 28.4569C5.20742 27.8081 4.13605 26.5788 3.46421 24.7704C3.8353 25.6404 4.83826 26.5676 6.47562 27.5519C6.23621 26.8835 5.87412 26.2937 5.39133 25.7829C0.521803 21.2706 3.80883 20.6596 2.66776 18.0717C4.34712 20.6049 0.843875 21.1294 5.89153 25.2479C5.34296 23.709 5.07446 22.0897 5.09835 20.4617C5.35196 22.5828 5.99289 24.6738 7.01969 26.7346C7.16428 26.9853 7.30689 27.2572 7.44826 27.5519C7.47923 27.6171 7.51148 27.6824 7.54185 27.7503C7.78646 28.8985 8.40665 29.6365 9.4064 29.9631C8.21883 27.7772 7.5186 25.3987 7.31851 22.9804C7.24239 22.0633 7.23912 21.1406 7.30753 20.2217C6.7454 16.8544 4.53296 12.4426 1.68677 10.3829C3.34544 10.6455 5.0054 12.5701 6.29235 14.6416C6.50337 11.9501 7.20173 9.68321 8.45894 8.96218C7.40631 10.6449 6.49758 13.7088 7.77869 17.2866C8.07237 15.9669 8.42085 15.0944 9.02498 13.8439C9.08883 13.712 9.15532 13.5807 9.22308 13.4494C9.32637 12.6448 9.85041 9.58212 10.1479 7.92012C10.1867 6.48428 9.81494 5.06664 9.07528 3.82423C9.43608 4.15962 9.73683 4.54214 9.97303 4.95605C10.2034 5.34864 10.3816 5.7695 10.5016 6.20791C11.0457 4.20987 11.9964 2.99761 13.3543 2.57112C14.8717 1.81046 16.7091 1.5272 18.8648 1.7213C14.8232 1.6993 10.7824 3.9002 11.1038 8.27002C12.8677 6.78261 14.4844 5.74436 15.2602 4.42782C14.2824 7.57843 11.482 6.98489 10.4003 11.4828C13.4885 6.99996 18.5174 4.05034 24.1396 3.55728C20.446 4.47432 17.9871 5.63191 16.7652 7.02696C17.9005 6.79893 18.8292 6.90382 19.5533 7.341C18.5446 7.08787 17.5707 7.13062 16.6304 7.47102C15.1233 7.9842 13.8461 9.0457 12.7967 10.6543C14.3302 9.49793 15.7965 8.9678 17.1938 9.0627C19.0674 9.51555 20.5421 9.21028 21.6187 8.14941C20.7862 9.48791 19.4366 9.94014 17.57 9.50673C16.4484 9.43136 15.0452 9.91814 13.3601 10.9678C11.3665 12.4363 10.3739 13.7327 10.3835 14.8564C12.0732 13.5122 14.2456 12.5116 16.8995 11.8553C18.7989 11.4577 20.4969 10.9621 21.9937 10.3672C24.2144 9.26118 25.3671 7.77377 25.453 5.90578C25.7833 7.14125 25.1303 8.52439 23.4962 10.0545C27.0078 8.95398 29.8321 8.87609 31.9683 9.81955C29.6726 9.12989 26.5346 9.43453 22.5564 10.7328C20.9914 11.4759 19.4812 12.05 18.0251 12.4557C15.3047 13.0097 12.8644 14.2195 10.7056 16.0831C9.44835 17.5924 8.21755 21.1249 8.87589 23.2122C9.3238 25.0801 9.54773 26.6454 9.54644 27.9099C9.74262 26.2622 9.61807 24.6362 9.17144 23.0301C8.36985 20.1244 11.3349 16.3506 13.9758 14.7521C16.3328 13.5349 19.4437 13.3439 23.3071 14.178C26.9303 14.0894 29.4248 13.141 30.7885 11.3333C30.2741 12.6957 28.558 13.7308 25.6396 14.4393C29.5551 15.6861 33.1391 14.8162 36.3932 11.8295C33.816 14.6767 30.9737 15.808 27.8655 15.2219C24.9321 14.9054 22.7062 14.6441 21.1889 14.4393C22.9282 16.1245 24.8948 16.8984 27.0883 16.7621C30.0999 16.7734 32.0032 17.3996 32.7996 18.6408C31.2241 17.5642 29.4183 17.0944 27.3833 17.2307C25.151 17.4323 22.9882 16.7099 20.8939 15.0655C20.0535 14.6686 19.3573 14.5385 18.8028 14.6742C15.7442 14.6767 13.2801 15.8765 11.4084 18.2733C16.8614 16.1126 17.5939 21.0308 22.2905 21.1037C19.0628 21.5947 17.9753 19.9153 15.954 19.0497C17.8612 20.9667 16.8827 22.7694 19.5876 23.454C15.7061 23.0042 17.308 21.0578 14.6548 18.6608C13.0155 18.3726 11.6795 18.5899 10.7011 19.5817C8.38924 21.9246 12.252 30.5442 15.5493 31.6019C16.8117 32.3519 17.7746 32.9944 18.4369 33.532C22.4396 33.4322 24.9251 33.7337 25.8932 34.436C30.2941 35.841 29.9928 33.7462 33.9026 34.1915Z" fill="#333333"/>
<path fill-rule="evenodd" clip-rule="evenodd" d="M25.3913 3.53068C24.8852 3.5834 24.4857 3.55831 24.1902 3.45654C25.5591 2.72668 26.4748 2.76626 26.9389 3.57713C26.4477 4.48159 25.5513 4.51054 24.2514 3.66065C24.7432 3.65752 25.1229 3.6142 25.3913 3.53068Z" fill="#333333"/>
<path fill-rule="evenodd" clip-rule="evenodd" d="M23.2591 4.70294C22.8571 4.60497 22.5589 4.47621 22.3627 4.3173C23.6205 4.13512 24.3093 4.41713 24.43 5.16337C23.7916 5.72112 23.0984 5.49562 22.3511 4.49001C22.7266 4.62192 23.0295 4.69351 23.2591 4.70294Z" fill="#333333"/>
<path fill-rule="evenodd" clip-rule="evenodd" d="M21.5953 5.25042C21.1944 5.15178 20.8949 5.02367 20.7001 4.86408C21.9573 4.68197 22.646 4.9646 22.766 5.71015C22.1278 6.26729 21.4346 6.04372 20.6873 5.03749C21.064 5.1694 21.3667 5.24035 21.5953 5.25042Z" fill="#333333"/>
<path fill-rule="evenodd" clip-rule="evenodd" d="M21.87 7.54734C21.7202 7.92294 21.5518 8.19555 21.3664 8.36578C21.3343 7.129 21.7054 6.49716 22.4823 6.47266C22.9723 7.15664 22.6593 7.79921 21.5421 8.3978C21.7221 8.05046 21.8307 7.76659 21.87 7.54734Z" fill="#333333"/>
<path fill-rule="evenodd" clip-rule="evenodd" d="M25.5201 5.75775C25.5134 6.16034 25.4529 6.47254 25.3386 6.69554C24.8681 5.54608 24.992 4.82811 25.7109 4.54297C26.4145 5.01972 26.3493 5.72758 25.5154 6.66722C25.5606 6.28033 25.5626 5.97693 25.5201 5.75775Z" fill="#333333"/>
<path fill-rule="evenodd" clip-rule="evenodd" d="M24.0977 7.51815C24.0913 7.92073 24.0313 8.23293 23.917 8.45523C23.4465 7.30584 23.5711 6.58786 24.2895 6.30273C24.9935 6.78009 24.9277 7.48795 24.0933 8.42698C24.1385 8.04007 24.1404 7.7367 24.0977 7.51815Z" fill="#333333"/>
<path fill-rule="evenodd" clip-rule="evenodd" d="M26.4153 6.97823C26.0991 7.23828 25.8184 7.40032 25.5718 7.46314C26.15 6.36082 26.7864 5.98018 27.4802 6.31869C27.5752 7.14719 26.9852 7.56553 25.7093 7.57368C26.0384 7.35198 26.2734 7.15282 26.4153 6.97823Z" fill="#333333"/>
<path fill-rule="evenodd" clip-rule="evenodd" d="M32.8926 10.1635C32.4924 10.0599 32.1962 9.92671 32.0019 9.76592C33.2617 9.60008 33.9471 9.89028 34.0569 10.6384C33.4115 11.1867 32.7222 10.9543 31.9871 9.93928C32.3621 10.0756 32.664 10.1503 32.8926 10.1635Z" fill="#333333"/>
<path fill-rule="evenodd" clip-rule="evenodd" d="M31.5801 8.62772C31.2658 8.88965 30.9851 9.05236 30.7385 9.11702C31.3116 8.0122 31.946 7.62779 32.6417 7.96256C32.7405 8.79169 32.1519 9.21254 30.8766 9.22635C31.2051 9.00336 31.4401 8.80363 31.5801 8.62772Z" fill="#333333"/>
<path fill-rule="evenodd" clip-rule="evenodd" d="M29.4619 8.40506C29.1476 8.66761 28.8675 8.83029 28.6208 8.89437C29.1941 7.78954 29.8285 7.40445 30.5242 7.74053C30.623 8.56899 30.0344 8.98983 28.7591 9.00365C29.0875 8.78065 29.3225 8.58092 29.4619 8.40506Z" fill="#333333"/>
<path fill-rule="evenodd" clip-rule="evenodd" d="M25.6792 8.7962C25.3628 9.05688 25.0816 9.21829 24.835 9.28051C25.4132 8.17944 26.0496 7.79815 26.7434 8.13737C26.8384 8.96644 26.2484 9.38353 24.9732 9.39165C25.3023 9.16997 25.5371 8.97211 25.6792 8.7962Z" fill="#333333"/>
<path fill-rule="evenodd" clip-rule="evenodd" d="M30.5902 10.2949C30.254 10.06 30.0242 9.83454 29.9002 9.61719C31.1401 9.89356 31.6751 10.4011 31.5074 11.1391C30.7051 11.4312 30.1436 10.9758 29.8247 9.77422C30.1256 10.0312 30.3811 10.2045 30.5902 10.2949Z" fill="#333333"/>
<path fill-rule="evenodd" clip-rule="evenodd" d="M28.4465 10.3594C28.109 10.1251 27.8799 9.89894 27.7567 9.68164C28.9958 9.95864 29.5323 10.4655 29.3637 11.2036C28.5601 11.4956 27.9987 11.0396 27.6799 9.83866C27.9819 10.0949 28.2369 10.2683 28.4465 10.3594Z" fill="#333333"/>
<path fill-rule="evenodd" clip-rule="evenodd" d="M37.0917 11.1167C36.8271 11.4264 36.58 11.6337 36.3469 11.7379C36.7192 10.554 37.2782 10.0703 38.0217 10.2864C38.2644 11.0866 37.7571 11.5991 36.503 11.8233C36.7876 11.5489 36.9839 11.3127 37.0917 11.1167Z" fill="#333333"/>
<path fill-rule="evenodd" clip-rule="evenodd" d="M35.0731 11.7304C34.9615 12.1186 34.8213 12.4062 34.6529 12.5922C34.4986 11.3636 34.8065 10.7003 35.5765 10.6035C36.1322 11.2398 35.8831 11.9081 34.8304 12.6085C34.9756 12.2461 35.057 11.9527 35.0731 11.7304Z" fill="#333333"/>
<path fill-rule="evenodd" clip-rule="evenodd" d="M36.731 12.8555C36.3528 13.02 36.0365 13.0992 35.7822 13.0929C36.6522 12.1903 37.3724 11.9969 37.9422 12.5094C37.7965 13.3322 37.1097 13.574 35.8822 13.2361C36.2617 13.1124 36.5444 12.9855 36.731 12.8555Z" fill="#333333"/>
<path fill-rule="evenodd" clip-rule="evenodd" d="M35.2231 14.2588C34.8093 14.2632 34.4867 14.213 34.2549 14.1093C35.4224 13.6194 36.1627 13.7205 36.4758 14.4121C36.0045 15.1093 35.2765 15.0647 34.2885 14.2789C34.6879 14.3128 34.999 14.3066 35.2231 14.2588Z" fill="#333333"/>
<path fill-rule="evenodd" clip-rule="evenodd" d="M33.6472 15.2045C33.2337 15.209 32.9108 15.1587 32.6792 15.0551C33.8467 14.5651 34.5871 14.665 34.8999 15.3572C34.4301 16.055 33.7008 16.011 32.7133 15.2247C33.1122 15.2579 33.4226 15.2523 33.6472 15.2045Z" fill="#333333"/>
<path fill-rule="evenodd" clip-rule="evenodd" d="M33.3732 12.9533C33.2423 13.3345 33.0881 13.6153 32.9098 13.7931C32.8189 12.5588 33.1604 11.9118 33.9341 11.8516C34.4563 12.5142 34.1743 13.1693 33.0861 13.8175C33.2507 13.4627 33.3463 13.1737 33.3732 12.9533Z" fill="#333333"/>
<path fill-rule="evenodd" clip-rule="evenodd" d="M31.2157 12.3231C30.8284 12.467 30.5089 12.5286 30.2546 12.5097C31.175 11.6555 31.9048 11.5003 32.4445 12.043C32.2521 12.8558 31.5525 13.0606 30.347 12.6573C30.7329 12.5543 31.022 12.4425 31.2157 12.3231Z" fill="#333333"/>
<path fill-rule="evenodd" clip-rule="evenodd" d="M29.1962 14.0398C28.8096 14.1843 28.4889 14.2458 28.2351 14.2264C29.1555 13.3721 29.8862 13.217 30.4256 13.7603C30.2326 14.5731 29.5337 14.7778 28.3267 14.3746C28.714 14.2716 29.0031 14.1598 29.1962 14.0398Z" fill="#333333"/>
<path fill-rule="evenodd" clip-rule="evenodd" d="M27.7209 12.6346C27.5298 12.9913 27.3323 13.2445 27.1284 13.394C27.2356 12.161 27.6757 11.5731 28.449 11.6308C28.86 12.3632 28.4766 12.9675 27.2995 13.4455C27.5175 13.1189 27.6582 12.8481 27.7209 12.6346Z" fill="#333333"/>
<path fill-rule="evenodd" clip-rule="evenodd" d="M33.4676 19.1444C33.1274 18.9157 32.8926 18.6941 32.7667 18.4785C34.0097 18.7337 34.5551 19.2317 34.4008 19.9723C33.6031 20.2782 33.0338 19.8328 32.6924 18.6369C32.9983 18.8882 33.257 19.0576 33.4676 19.1444Z" fill="#333333"/>
<path fill-rule="evenodd" clip-rule="evenodd" d="M32.7674 17.4533C32.3551 17.4903 32.029 17.4665 31.7896 17.3811C32.9133 16.8001 33.6587 16.8421 34.0285 17.5061C33.6181 18.2384 32.8881 18.2528 31.8374 17.5475C32.2381 17.55 32.5479 17.5187 32.7674 17.4533Z" fill="#333333"/>
<path fill-rule="evenodd" clip-rule="evenodd" d="M31.6831 18.868C31.4515 18.5325 31.3172 18.2436 31.2799 17.998C32.3415 18.6789 32.661 19.3366 32.2389 19.9709C31.3819 19.9709 31.0197 19.3534 31.1528 18.1186C31.3424 18.4616 31.5192 18.7116 31.6831 18.868Z" fill="#333333"/>
<path fill-rule="evenodd" clip-rule="evenodd" d="M29.8049 18.2671C29.5738 17.933 29.4388 17.6434 29.402 17.3984C30.4638 18.0794 30.784 18.7364 30.3611 19.3707C29.5042 19.3707 29.1413 18.7539 29.2743 17.519C29.464 17.8619 29.6415 18.1114 29.8049 18.2671Z" fill="#333333"/>
<path fill-rule="evenodd" clip-rule="evenodd" d="M30.9867 16.4748C30.6189 16.6594 30.3073 16.7562 30.053 16.7643C30.8699 15.8153 31.578 15.5822 32.1764 16.0633C32.0789 16.8918 31.4064 17.1713 30.1614 16.9019C30.5332 16.7574 30.8087 16.6148 30.9867 16.4748Z" fill="#333333"/>
<path fill-rule="evenodd" clip-rule="evenodd" d="M28.1578 16.1308C27.79 16.3155 27.4784 16.4123 27.2246 16.4204C28.041 15.472 28.7478 15.2383 29.3475 15.7194C29.2485 16.5479 28.5775 16.8274 27.333 16.5574C27.7043 16.4135 27.9791 16.2709 28.1578 16.1308Z" fill="#333333"/>
<path fill-rule="evenodd" clip-rule="evenodd" d="M25.3668 15.894C24.999 16.0793 24.6884 16.1761 24.4336 16.1842C25.2507 15.2352 25.9581 15.0021 26.557 15.4833C26.4588 16.3118 25.7877 16.5913 24.542 16.3212C24.9145 16.1773 25.1893 16.0348 25.3668 15.894Z" fill="#333333"/>
<path fill-rule="evenodd" clip-rule="evenodd" d="M23.354 17.4597C23.0538 17.1815 22.8588 16.9277 22.7684 16.6953C23.9561 17.1375 24.4143 17.7129 24.1413 18.4201C23.3041 18.6003 22.8143 18.0741 22.6697 16.8404C22.9318 17.135 23.1595 17.3417 23.354 17.4597Z" fill="#333333"/>
<path fill-rule="evenodd" clip-rule="evenodd" d="M25.5254 18.1381C25.2252 17.8604 25.0304 17.6054 24.94 17.373C26.1275 17.8152 26.5857 18.3906 26.3127 19.0984C25.4755 19.2781 24.9857 18.7511 24.8418 17.5182C25.1032 17.8127 25.3311 18.02 25.5254 18.1381Z" fill="#333333"/>
<path fill-rule="evenodd" clip-rule="evenodd" d="M28.074 18.2683C27.7738 17.9907 27.5783 17.7357 27.4879 17.5039C28.6754 17.946 29.1331 18.5208 28.8606 19.2287C28.0242 19.4083 27.5331 18.8819 27.3892 17.6483C27.6518 17.9435 27.8797 18.1508 28.074 18.2683Z" fill="#333333"/>
<path fill-rule="evenodd" clip-rule="evenodd" d="M25.9411 10.7721C25.6048 10.5372 25.3745 10.3111 25.2518 10.0938C26.4909 10.3708 27.0266 10.8783 26.8582 11.6151C26.0554 11.9077 25.4952 11.4523 25.1755 10.2502C25.4764 10.507 25.7327 10.681 25.9411 10.7721Z" fill="#333333"/>
<path fill-rule="evenodd" clip-rule="evenodd" d="M23.5366 11.539C23.2011 11.3047 22.97 11.0793 22.8473 10.8613C24.0871 11.1383 24.6221 11.6452 24.4545 12.3832C23.6514 12.6753 23.0907 12.2199 22.7712 11.0183C23.0727 11.274 23.3282 11.4486 23.5366 11.539Z" fill="#333333"/>
<path fill-rule="evenodd" clip-rule="evenodd" d="M21.3086 12.4668C20.9718 12.2318 20.742 12.0064 20.6188 11.7891C21.8572 12.0654 22.3936 12.5729 22.2252 13.3103C21.4216 13.6018 20.8607 13.1476 20.5413 11.9454C20.8434 12.2017 21.0982 12.3763 21.3086 12.4668Z" fill="#333333"/>
<path fill-rule="evenodd" clip-rule="evenodd" d="M20.2901 7.46218C19.9564 7.41443 19.7033 7.33464 19.5317 7.22225C20.5341 6.97225 21.1167 7.14498 21.2775 7.73917C20.8083 8.2423 20.2275 8.11726 19.5355 7.36291C19.8517 7.43955 20.1035 7.47285 20.2901 7.46218Z" fill="#333333"/>
<path fill-rule="evenodd" clip-rule="evenodd" d="M18.7395 7.85231C18.4583 7.6714 18.264 7.49367 18.1574 7.32031C19.174 7.50997 19.6263 7.90696 19.5115 8.51308C18.8674 8.7731 18.3968 8.41887 18.1006 7.45028C18.3536 7.65006 18.5659 7.78447 18.7395 7.85231Z" fill="#333333"/>
<path fill-rule="evenodd" clip-rule="evenodd" d="M19.2541 6.20324C18.9745 6.38727 18.7313 6.49404 18.5266 6.52361C19.0952 5.68192 19.6445 5.42754 20.1757 5.76106C20.177 6.44004 19.6613 6.72835 18.628 6.6247C18.9145 6.47335 19.1223 6.33388 19.2541 6.20324Z" fill="#333333"/>
<path fill-rule="evenodd" clip-rule="evenodd" d="M23.2644 2.64238C22.9966 3.06261 22.7307 3.35468 22.4673 3.51922C22.7151 2.01931 23.3109 1.34033 24.2525 1.481C24.6842 2.4144 24.1576 3.11975 22.6714 3.59774C22.9694 3.21777 23.1669 2.89931 23.2644 2.64238Z" fill="#333333"/>
<path fill-rule="evenodd" clip-rule="evenodd" d="M20.7684 3.16907C20.5 3.58991 20.2339 3.88198 19.9707 4.04594C20.2186 2.5466 20.8143 1.86764 21.7559 2.00835C22.1877 2.94169 21.6609 3.6471 20.1739 4.12446C20.4721 3.74444 20.6711 3.42599 20.7684 3.16907Z" fill="#333333"/>
<path fill-rule="evenodd" clip-rule="evenodd" d="M18.3691 4.13668C18.1005 4.55746 17.8353 4.84953 17.572 5.01287C17.8198 3.51353 18.415 2.83394 19.3571 2.97528C19.7896 3.90925 19.2623 4.61466 17.7753 5.09202C18.0736 4.712 18.2716 4.39355 18.3691 4.13668Z" fill="#333333"/>
<path fill-rule="evenodd" clip-rule="evenodd" d="M21.3061 16.6411C21.2118 16.2485 21.1911 15.9319 21.2453 15.6895C21.9907 16.6919 22.0509 17.4168 21.4253 17.8645C20.6237 17.5688 20.5089 16.8665 21.0821 15.7579C21.1357 16.1448 21.2098 16.4388 21.3061 16.6411Z" fill="#333333"/>
<path fill-rule="evenodd" clip-rule="evenodd" d="M19.4762 15.8051C19.3814 15.4125 19.3614 15.0953 19.4157 14.8535C20.1611 15.8553 20.2211 16.5808 19.5957 17.0274C18.7936 16.7328 18.6793 16.0312 19.2523 14.922C19.3054 15.3082 19.3802 15.6028 19.4762 15.8051Z" fill="#333333"/>
<path fill-rule="evenodd" clip-rule="evenodd" d="M17.6526 15.9347C17.5578 15.5415 17.5378 15.2255 17.592 14.9824C18.3374 15.9849 18.3974 16.7098 17.7721 17.1576C16.9705 16.8617 16.8556 16.1601 17.4287 15.0516C17.4816 15.4372 17.5565 15.7318 17.6526 15.9347Z" fill="#333333"/>
<path fill-rule="evenodd" clip-rule="evenodd" d="M23.1778 20.7256C22.8189 20.9266 22.5123 21.0377 22.2593 21.0579C23.028 20.0716 23.7232 19.8066 24.3453 20.2582C24.2886 21.0911 23.6314 21.4007 22.3743 21.1897C22.7382 21.0277 23.0061 20.8732 23.1778 20.7256Z" fill="#333333"/>
<path fill-rule="evenodd" clip-rule="evenodd" d="M21.6563 22.0423C21.307 21.825 21.065 21.6127 20.9302 21.4023C22.1829 21.6127 22.7463 22.0907 22.6198 22.8356C21.8343 23.1704 21.2484 22.7452 20.863 21.5623C21.1786 21.8023 21.4425 21.9625 21.6563 22.0423Z" fill="#333333"/>
<path fill-rule="evenodd" clip-rule="evenodd" d="M21.5828 20.1336C21.2806 20.4088 21.0076 20.5847 20.7656 20.6601C21.2865 19.5308 21.9015 19.1186 22.6121 19.4233C22.7496 20.2467 22.1817 20.6933 20.9083 20.7636C21.2251 20.5256 21.451 20.3158 21.5828 20.1336Z" fill="#333333"/>
<path fill-rule="evenodd" clip-rule="evenodd" d="M19.813 19.351C19.5104 19.6262 19.2388 19.8021 18.9954 19.8769C19.5163 18.7474 20.1325 18.3348 20.8425 18.6406C20.98 19.4635 20.4127 19.9108 19.1393 19.981C19.4563 19.7424 19.6807 19.5331 19.813 19.351Z" fill="#333333"/>
<path fill-rule="evenodd" clip-rule="evenodd" d="M20.6022 23.5678C20.1886 23.561 19.8677 23.5014 19.6399 23.3894C20.8229 22.9348 21.5594 23.0578 21.8499 23.7589C21.3581 24.4416 20.6306 24.3757 19.6678 23.561C20.0653 23.6069 20.377 23.6087 20.6022 23.5678Z" fill="#333333"/>
<path fill-rule="evenodd" clip-rule="evenodd" d="M18.8713 24.2214C18.6138 23.9041 18.4563 23.6266 18.4002 23.3848C19.5122 23.9826 19.884 24.6146 19.5136 25.2785C18.659 25.3437 18.2486 24.7558 18.2822 23.5148C18.499 23.8419 18.6952 24.0782 18.8713 24.2214Z" fill="#333333"/>
<path fill-rule="evenodd" clip-rule="evenodd" d="M17.002 23.7451C16.9555 23.3444 16.9749 23.0267 17.0582 22.793C17.6758 23.8746 17.6468 24.6019 16.9704 24.9731C16.2101 24.5874 16.183 23.8765 16.8878 22.8419C16.8923 23.2321 16.9304 23.533 17.002 23.7451Z" fill="#333333"/>
<path fill-rule="evenodd" clip-rule="evenodd" d="M15.8712 22.5055C16.0274 22.1325 16.201 21.8623 16.3901 21.6959C16.3979 22.9339 16.0145 23.5582 15.2388 23.5689C14.7618 22.876 15.0871 22.2393 16.2159 21.6602C16.0287 22.005 15.9138 22.2864 15.8712 22.5055Z" fill="#333333"/>
<path fill-rule="evenodd" clip-rule="evenodd" d="M15.2004 20.9418C15.3579 20.5687 15.5303 20.2987 15.7193 20.1321C15.7278 21.3696 15.3444 21.9946 14.568 22.0052C14.091 21.3118 14.417 20.6748 15.5451 20.0957C15.3586 20.4412 15.243 20.7227 15.2004 20.9418Z" fill="#333333"/>
<path fill-rule="evenodd" clip-rule="evenodd" d="M18.7866 22.1204C18.373 22.1248 18.0501 22.0739 17.8198 21.9691C18.9873 21.4811 19.7276 21.5821 20.0393 22.2743C19.5689 22.9721 18.8396 22.927 17.8521 22.1398C18.2516 22.1745 18.5626 22.167 18.7866 22.1204Z" fill="#333333"/>
<path fill-rule="evenodd" clip-rule="evenodd" d="M13.3293 12.0336C12.9582 12.3577 12.6245 12.5618 12.3296 12.6467C12.9885 11.2981 13.7424 10.8169 14.5911 11.2033C14.7337 12.1988 14.0366 12.7226 12.4993 12.7748C12.8891 12.4971 13.1647 12.2497 13.3293 12.0336Z" fill="#333333"/>
<path fill-rule="evenodd" clip-rule="evenodd" d="M15.7557 10.5454C15.3511 10.5234 15.0387 10.4537 14.8206 10.3369C15.9945 9.93422 16.7096 10.08 16.9678 10.7759C16.4605 11.4254 15.7525 11.3362 14.8425 10.5058C15.2291 10.5636 15.5331 10.5768 15.7557 10.5454Z" fill="#333333"/>
<path fill-rule="evenodd" clip-rule="evenodd" d="M18.3201 10.1681C17.9444 10.0224 17.6707 9.86033 17.501 9.6826C18.7453 9.66058 19.3758 10.0192 19.3953 10.7591C18.704 11.2202 18.0606 10.9168 17.4668 9.84843C17.8147 10.023 18.0994 10.1298 18.3201 10.1681Z" fill="#333333"/>
<path fill-rule="evenodd" clip-rule="evenodd" d="M21.2812 9.5468C20.8824 9.62032 20.563 9.62657 20.3223 9.565C21.3594 8.89734 22.0912 8.87034 22.5141 9.48273C22.1855 10.234 21.4755 10.3144 20.3848 9.72328C20.7753 9.68877 21.0735 9.63034 21.2812 9.5468Z" fill="#333333"/>
<path fill-rule="evenodd" clip-rule="evenodd" d="M18.713 13.0742C18.334 13.2149 18.021 13.2746 17.772 13.2544C18.6749 12.4216 19.3899 12.2708 19.9165 12.8041C19.7262 13.5993 19.0421 13.7972 17.8622 13.3995C18.2399 13.3003 18.5238 13.191 18.713 13.0742Z" fill="#333333"/>
<path fill-rule="evenodd" clip-rule="evenodd" d="M16.7918 8.32751C16.5685 8.57371 16.3619 8.73642 16.1709 8.81556C16.5033 7.86147 16.9693 7.48081 17.5688 7.67362C17.7463 8.33126 17.321 8.7358 16.2942 8.8884C16.533 8.67235 16.6988 8.48517 16.7918 8.32751Z" fill="#333333"/>
<path fill-rule="evenodd" clip-rule="evenodd" d="M25.3347 13.0519C25.1429 13.4093 24.9454 13.6631 24.7429 13.8113C24.8481 12.5783 25.2883 11.991 26.0627 12.0488C26.4731 12.7805 26.0897 13.386 24.9118 13.8634C25.1308 13.5368 25.2715 13.2661 25.3347 13.0519Z" fill="#333333"/>
<path fill-rule="evenodd" clip-rule="evenodd" d="M15.1078 16.6204C14.7212 16.7655 14.4011 16.827 14.1475 16.8082C15.0665 15.9527 15.7964 15.7969 16.3373 16.3396C16.1456 17.1524 15.4466 17.3584 14.2398 16.9564C14.6257 16.8528 14.9142 16.741 15.1078 16.6204Z" fill="#333333"/>
<path fill-rule="evenodd" clip-rule="evenodd" d="M19.5423 1.54003C19.0505 1.66438 18.6516 1.69769 18.3438 1.63992C19.5863 0.720347 20.4982 0.628013 21.0804 1.36167C20.7325 2.32771 19.8514 2.48469 18.4361 1.83335C18.9214 1.75864 19.29 1.66062 19.5423 1.54003Z" fill="#333333"/>
<path fill-rule="evenodd" clip-rule="evenodd" d="M17.8139 0.816329C17.5513 1.10212 17.3073 1.29054 17.084 1.381C17.4803 0.268614 18.0295 -0.171064 18.7292 0.0594526C18.9297 0.828893 18.429 1.29873 17.2279 1.46708C17.5086 1.21646 17.7042 1.00037 17.8139 0.816329Z" fill="#333333"/>
<path fill-rule="evenodd" clip-rule="evenodd" d="M15.3156 1.09515C15.0955 1.43873 14.8773 1.67741 14.6611 1.8112C14.867 0.584511 15.3549 0.0292636 16.1262 0.146091C16.4786 0.911131 16.0455 1.48711 14.8276 1.8759C15.0722 1.56563 15.2349 1.30495 15.3156 1.09515Z" fill="#333333"/>
<path fill-rule="evenodd" clip-rule="evenodd" d="M12.8181 1.72591C12.6761 2.14113 12.5089 2.44445 12.3179 2.63793C12.2159 1.30131 12.5832 0.598461 13.4221 0.53125C13.9908 1.24792 13.6861 1.95897 12.5083 2.66556C12.6858 2.27929 12.7884 1.96709 12.8181 1.72591Z" fill="#333333"/>
<path fill-rule="evenodd" clip-rule="evenodd" d="M17.5396 2.41444C17.1156 2.38555 16.7897 2.30765 16.5625 2.18139C17.7997 1.77561 18.5484 1.94021 18.8079 2.67444C18.2664 3.3484 17.5242 3.24414 16.5819 2.35917C16.9878 2.42574 17.3067 2.44457 17.5396 2.41444Z" fill="#333333"/>
<path fill-rule="evenodd" clip-rule="evenodd" d="M15.4561 3.75908C15.3258 4.23644 15.1586 4.59133 14.9559 4.82308C14.7436 3.31817 15.1096 2.4991 16.0531 2.36719C16.7463 3.13662 16.4526 3.96194 15.1741 4.84071C15.3458 4.3916 15.44 4.03103 15.4561 3.75908Z" fill="#333333"/>
<path fill-rule="evenodd" clip-rule="evenodd" d="M13.7173 5.11204C13.6799 5.52471 13.594 5.84065 13.4617 6.05983C13.0661 4.84947 13.2468 4.12399 14.0045 3.88281C14.6886 4.42113 14.5686 5.14154 13.6437 6.04351C13.7186 5.65097 13.7438 5.34065 13.7173 5.11204Z" fill="#333333"/>
<path fill-rule="evenodd" clip-rule="evenodd" d="M12.1084 6.15562C12.0703 6.56828 11.9858 6.8836 11.8528 7.10284C11.4565 5.89182 11.6373 5.16571 12.3949 4.92578C13.0797 5.46408 12.9597 6.18389 12.0342 7.08714C12.1103 6.69267 12.1348 6.383 12.1084 6.15562Z" fill="#333333"/>
<path fill-rule="evenodd" clip-rule="evenodd" d="M15.4764 5.60119C15.1821 5.90019 14.9123 6.09424 14.6677 6.18408C15.1389 4.99949 15.7462 4.54344 16.4916 4.81731C16.6794 5.65458 16.1218 6.14263 14.8207 6.28272C15.1324 6.02205 15.3512 5.7953 15.4764 5.60119Z" fill="#333333"/>
<path fill-rule="evenodd" clip-rule="evenodd" d="M10.8787 3.27717C10.9219 3.68608 10.8994 4.01083 10.8109 4.24951C10.1933 3.13838 10.2301 2.39596 10.9239 2.02344C11.6958 2.42483 11.7164 3.15094 10.9858 4.20051C10.9845 3.80228 10.949 3.49453 10.8787 3.27717Z" fill="#333333"/>
<path fill-rule="evenodd" clip-rule="evenodd" d="M8.7565 3.38283C9.02243 3.70442 9.18507 3.98767 9.24443 4.23392C8.10271 3.63158 7.71871 2.98962 8.09109 2.30878C8.96302 2.23526 9.38703 2.83258 9.36384 4.10013C9.13986 3.76724 8.9372 3.52856 8.7565 3.38283Z" fill="#333333"/>
<path fill-rule="evenodd" clip-rule="evenodd" d="M8.8398 5.15382C9.21673 5.3391 9.48517 5.53253 9.64332 5.73294C8.3493 5.64125 7.72712 5.20971 7.77941 4.43903C8.54291 4.02382 9.18185 4.39882 9.6956 5.56335C9.35028 5.3498 9.06566 5.21346 8.8398 5.15382Z" fill="#333333"/>
<path fill-rule="evenodd" clip-rule="evenodd" d="M9.31933 6.87751C9.63947 7.03644 9.86669 7.20097 10.0016 7.37121C8.90181 7.29206 8.37385 6.92585 8.41837 6.27201C9.0683 5.91899 9.61044 6.23744 10.0461 7.22735C9.75305 7.04519 9.51101 6.92903 9.31933 6.87751Z" fill="#333333"/>
<path fill-rule="evenodd" clip-rule="evenodd" d="M8.80081 8.28852C8.66527 8.61202 8.51619 8.84627 8.35226 8.99138C8.34256 7.91731 8.67369 7.37588 9.34745 7.36523C9.76247 7.9657 9.48106 8.51845 8.50392 9.02093C8.66528 8.72318 8.76465 8.47825 8.80081 8.28852Z" fill="#333333"/>
<path fill-rule="evenodd" clip-rule="evenodd" d="M7.37117 8.89884C7.45705 9.23804 7.47767 9.51374 7.4338 9.72354C6.7768 8.86177 6.71674 8.23368 7.25439 7.83984C7.95333 8.08797 8.05983 8.69472 7.57448 9.66265C7.52482 9.32783 7.45576 9.07345 7.37117 8.89884Z" fill="#333333"/>
<path fill-rule="evenodd" clip-rule="evenodd" d="M6.50093 10.529C6.58675 10.8682 6.60743 11.1427 6.56222 11.3537C5.90586 10.492 5.8465 9.86321 6.38409 9.46875C7.08245 9.71688 7.18959 10.3249 6.70359 11.2922C6.65388 10.958 6.58611 10.703 6.50093 10.529Z" fill="#333333"/>
<path fill-rule="evenodd" clip-rule="evenodd" d="M5.83047 12.669C5.91629 13.0088 5.93697 13.2833 5.89245 13.4944C5.2354 12.6319 5.1754 12.0038 5.71368 11.6094C6.41198 11.8575 6.51913 12.4655 6.03313 13.4328C5.98277 13.0986 5.91565 12.8436 5.83047 12.669Z" fill="#333333"/>
<path fill-rule="evenodd" clip-rule="evenodd" d="M8.67569 9.81825C8.47882 10.1103 8.28521 10.3119 8.09546 10.4231C8.30005 9.36786 8.73312 8.89868 9.39532 9.01552C9.68316 9.68255 9.29782 10.1718 8.23876 10.4822C8.45691 10.219 8.60208 9.99786 8.67569 9.81825Z" fill="#333333"/>
<path fill-rule="evenodd" clip-rule="evenodd" d="M8.03238 11.7229C7.83556 12.0149 7.6419 12.2165 7.45215 12.3283C7.65674 11.2725 8.08917 10.8039 8.75201 10.9195C9.03984 11.5872 8.65327 12.0752 7.59417 12.3868C7.81295 12.1236 7.95818 11.9025 8.03238 11.7229Z" fill="#333333"/>
<path fill-rule="evenodd" clip-rule="evenodd" d="M7.93256 13.5842C7.73574 13.8763 7.54213 14.0779 7.35303 14.1896C7.55633 13.1344 7.9894 12.6652 8.65219 12.7808C8.94008 13.4485 8.5541 13.9365 7.49499 14.2481C7.71313 13.9855 7.85965 13.7638 7.93256 13.5842Z" fill="#333333"/>
<path fill-rule="evenodd" clip-rule="evenodd" d="M1.05654 10.2806C1.41279 10.3252 1.68321 10.4062 1.86905 10.523C0.804803 10.8063 0.182625 10.6329 0 10.0023C0.489857 9.45836 1.11075 9.58214 1.86198 10.3729C1.52314 10.2969 1.25464 10.2661 1.05654 10.2806Z" fill="#333333"/>
<path fill-rule="evenodd" clip-rule="evenodd" d="M2.00936 11.5604C2.36561 11.605 2.63604 11.6854 2.82257 11.8028C1.75768 12.0861 1.13551 11.9121 0.952881 11.2815C1.44402 10.7382 2.06357 10.8606 2.8148 11.6527C2.4773 11.5773 2.2088 11.5466 2.00936 11.5604Z" fill="#333333"/>
<path fill-rule="evenodd" clip-rule="evenodd" d="M2.78312 10.1053C3.03544 10.354 3.1968 10.5807 3.26906 10.7842C2.2526 10.3691 1.87117 9.85902 2.12671 9.25293C2.85731 9.11848 3.26778 9.58769 3.3588 10.6611C3.14001 10.398 2.94833 10.2133 2.78312 10.1053Z" fill="#333333"/>
<path fill-rule="evenodd" clip-rule="evenodd" d="M4.29588 11.1578C4.43726 11.4788 4.50369 11.747 4.49404 11.9618C3.7021 11.215 3.53945 10.6038 4.00419 10.1309C4.73538 10.2646 4.94131 10.8475 4.6231 11.8789C4.51858 11.5573 4.40881 11.3161 4.29588 11.1578Z" fill="#333333"/>
<path fill-rule="evenodd" clip-rule="evenodd" d="M3.29869 12.8381C3.64267 12.9386 3.89633 13.0605 4.06026 13.2062C2.96307 13.3174 2.37769 13.0486 2.30151 12.3978C2.8766 11.9374 3.46841 12.1573 4.07767 13.0561C3.7556 12.9279 3.4968 12.8557 3.29869 12.8381Z" fill="#333333"/>
<path fill-rule="evenodd" clip-rule="evenodd" d="M4.26251 14.2456C4.60654 14.3474 4.86079 14.4692 5.02408 14.6137C3.92693 14.7261 3.34156 14.456 3.26538 13.8053C3.84042 13.3461 4.43227 13.5654 5.04154 14.4642C4.72011 14.3367 4.46067 14.2638 4.26251 14.2456Z" fill="#333333"/>
<path fill-rule="evenodd" clip-rule="evenodd" d="M5.32265 16.2177C5.66733 16.3175 5.92094 16.4401 6.08358 16.5851C4.98773 16.6969 4.40235 16.4275 4.32617 15.7761C4.90121 15.3164 5.49306 15.5368 6.10233 16.4356C5.78026 16.3081 5.52017 16.2346 5.32265 16.2177Z" fill="#333333"/>
<path fill-rule="evenodd" clip-rule="evenodd" d="M5.88946 17.8378C6.23414 17.9384 6.4871 18.0614 6.65039 18.2059C5.55389 18.3171 4.96787 18.0482 4.89233 17.3975C5.46737 16.9378 6.05923 17.157 6.66849 18.0559C6.34707 17.9282 6.08762 17.8555 5.88946 17.8378Z" fill="#333333"/>
<path fill-rule="evenodd" clip-rule="evenodd" d="M2.47091 17.5229C2.60774 17.8452 2.67165 18.1146 2.65938 18.3294C1.87783 17.5719 1.72098 16.9602 2.19277 16.4922C2.9214 16.6354 3.1202 17.2214 2.78849 18.2478C2.68841 17.925 2.58127 17.6831 2.47091 17.5229Z" fill="#333333"/>
<path fill-rule="evenodd" clip-rule="evenodd" d="M2.18783 18.9554C2.45177 19.1927 2.6254 19.4107 2.70672 19.6104C1.67086 19.2431 1.26618 18.7511 1.49209 18.1338C2.21493 17.9661 2.648 18.4157 2.78997 19.4836C2.55956 19.2316 2.35824 19.0557 2.18783 18.9554Z" fill="#333333"/>
<path fill-rule="evenodd" clip-rule="evenodd" d="M1.83071 20.2943C2.09471 20.5304 2.26763 20.7484 2.3496 20.9481C1.31246 20.582 0.907777 20.089 1.13369 19.4715C1.85717 19.3043 2.2896 19.7541 2.43221 20.8218C2.20115 20.5693 2.00047 20.3936 1.83071 20.2943Z" fill="#333333"/>
<path fill-rule="evenodd" clip-rule="evenodd" d="M1.92558 21.9778C2.26121 22.1035 2.50517 22.2447 2.65555 22.4005C1.55386 22.4306 0.991088 22.1185 0.966553 21.464C1.57518 21.0488 2.14828 21.3121 2.68522 22.253C2.37413 22.1015 2.12181 22.0092 1.92558 21.9778Z" fill="#333333"/>
<path fill-rule="evenodd" clip-rule="evenodd" d="M3.50772 18.1423C3.40449 18.4771 3.27801 18.7239 3.12956 18.8835C3.01465 17.8157 3.29092 17.246 3.96018 17.1719C4.43258 17.7316 4.20672 18.3075 3.28315 18.9005C3.41483 18.5869 3.48967 18.3344 3.50772 18.1423Z" fill="#333333"/>
<path fill-rule="evenodd" clip-rule="evenodd" d="M3.91981 19.4772C3.68554 19.7429 3.46676 19.9188 3.26538 20.0061C3.60551 18.9848 4.09729 18.5734 4.73886 18.7705C4.93697 19.4679 4.49035 19.905 3.39835 20.0814C3.64943 19.8477 3.82301 19.6461 3.91981 19.4772Z" fill="#333333"/>
<path fill-rule="evenodd" clip-rule="evenodd" d="M3.62303 20.9989C3.42294 21.2262 3.23705 21.3762 3.06348 21.4511C3.35453 20.578 3.77469 20.2255 4.32326 20.3946C4.49303 20.9912 4.11096 21.365 3.17769 21.5157C3.39262 21.3154 3.54042 21.1439 3.62303 20.9989Z" fill="#333333"/>
<path fill-rule="evenodd" clip-rule="evenodd" d="M4.11417 22.6029C4.08964 22.8999 4.02899 23.1286 3.93412 23.2881C3.64178 22.4145 3.76955 21.8893 4.31619 21.7129C4.81317 22.0991 4.72928 22.6199 4.0658 23.2749C4.11808 22.9909 4.13485 22.7661 4.11417 22.6029Z" fill="#333333"/>
<path fill-rule="evenodd" clip-rule="evenodd" d="M5.20425 19.8041C5.17971 20.1025 5.11907 20.3298 5.02419 20.4894C4.7325 19.6164 4.85962 19.0917 5.40562 18.9141C5.90325 19.3003 5.82 19.821 5.15523 20.4775C5.2088 20.1923 5.22492 19.9675 5.20425 19.8041Z" fill="#333333"/>
<path fill-rule="evenodd" clip-rule="evenodd" d="M5.82347 21.0464C5.70342 21.3215 5.57244 21.5194 5.43042 21.6417C5.43626 20.7235 5.72667 20.2644 6.30235 20.2637C6.6496 20.7814 6.40178 21.2505 5.55953 21.6694C5.70149 21.4156 5.7893 21.2078 5.82347 21.0464Z" fill="#333333"/>
<path fill-rule="evenodd" clip-rule="evenodd" d="M6.13158 22.5227C6.01153 22.7979 5.88054 22.9963 5.73853 23.1183C5.74436 22.1999 6.03478 21.7408 6.61045 21.7402C6.9577 22.2577 6.70988 22.7276 5.86763 23.1465C6.0096 22.8927 6.0974 22.6849 6.13158 22.5227Z" fill="#333333"/>
<path fill-rule="evenodd" clip-rule="evenodd" d="M6.61409 23.9379C6.57536 24.2345 6.50438 24.4606 6.40173 24.6145C6.15263 23.7295 6.30429 23.2106 6.85805 23.0586C7.33564 23.4668 7.2285 23.9832 6.53341 24.6082C6.59925 24.3261 6.62636 24.1038 6.61409 23.9379Z" fill="#333333"/>
<path fill-rule="evenodd" clip-rule="evenodd" d="M2.87068 24.2443C3.11978 24.4195 3.2895 24.5884 3.37987 24.7493C2.46144 24.5388 2.06646 24.1607 2.19364 23.6148C2.79128 23.4007 3.20496 23.7404 3.43666 24.6336C3.21401 24.442 3.02619 24.3121 2.87068 24.2443Z" fill="#333333"/>
<path fill-rule="evenodd" clip-rule="evenodd" d="M3.17483 25.8629C3.46395 25.9634 3.67497 26.0784 3.80922 26.2097C2.8676 26.2586 2.37838 26.0036 2.34351 25.4447C2.85468 25.0765 3.35038 25.2888 3.83054 26.0822C3.56204 25.9597 3.34261 25.8868 3.17483 25.8629Z" fill="#333333"/>
<path fill-rule="evenodd" clip-rule="evenodd" d="M4.01014 27.2422C4.31731 27.2592 4.55292 27.3113 4.71878 27.3986C3.83067 27.7065 3.28794 27.5972 3.09106 27.0708C3.47314 26.5765 4.01142 26.6431 4.70201 27.2711C4.40833 27.2272 4.17792 27.2178 4.01014 27.2422Z" fill="#333333"/>
<path fill-rule="evenodd" clip-rule="evenodd" d="M5.30405 28.4625C5.60223 28.3909 5.84357 28.374 6.02882 28.4109C5.27046 28.9581 4.71932 29.007 4.37207 28.5591C4.59086 27.9782 5.12523 27.889 5.97461 28.2941C5.68093 28.335 5.457 28.3915 5.30405 28.4625Z" fill="#333333"/>
<path fill-rule="evenodd" clip-rule="evenodd" d="M4.4683 25.5092C4.63608 25.6871 4.74194 25.846 4.78646 25.988C4.09715 25.6794 3.84676 25.3176 4.03844 24.9069C4.54442 24.8316 4.81549 25.1644 4.85101 25.905C4.70706 25.7198 4.5793 25.5878 4.4683 25.5092Z" fill="#333333"/>
</g>
</svg>
