<svg width="40" height="42" viewBox="0 0 40 42" fill="none" xmlns="http://www.w3.org/2000/svg">
<mask id="mask0_390_735" style="mask-type:luminance" maskUnits="userSpaceOnUse" x="0" y="0" width="40" height="42">
<path d="M40 0.492188H0V41.6849H40V0.492188Z" fill="white"/>
</mask>
<g mask="url(#mask0_390_735)">
<path fill-rule="evenodd" clip-rule="evenodd" d="M24.3128 30.309C24.0195 30.1502 23.4941 29.9197 22.7381 29.6172C23.6598 28.0068 24.0971 28.5942 24.6803 26.2745C24.9693 27.8972 24.8471 29.242 24.3128 30.309ZM23.046 30.9773C24.3025 31.087 25.1953 31.444 25.7223 32.0495C25.0573 31.6713 24.1646 31.3143 23.046 30.9773ZM28.021 30.309C27.4873 29.242 27.365 27.8972 27.6541 26.2745C28.2373 28.5942 28.674 28.0068 29.5961 29.6172C28.8403 29.9197 28.315 30.1502 28.021 30.309ZM29.2878 30.9773C28.1691 31.3143 27.277 31.6713 26.6115 32.0495C27.1391 31.444 28.0313 31.087 29.2878 30.9773ZM26.1668 19.6523C25.7453 19.6758 25.3615 19.8957 25.1363 20.2438C24.9103 20.5915 24.8706 21.0235 25.0301 21.404C24.782 21.2153 24.726 21.2687 24.8645 21.5652C24.9248 21.8302 25.0513 21.9815 25.2435 22.0213C25.3085 22.3555 25.4525 22.6433 25.6753 22.8855C25.7585 23.2548 25.582 23.44 25.1423 23.4388C23.9291 23.338 23.3176 23.987 23.3068 25.3868C23.2483 25.6853 23.2128 26.1695 23.1996 26.839C23.1278 27.2142 22.5563 28.018 21.4823 29.2485C21.428 29.3088 21.3853 29.3317 21.3521 29.3177C21.1208 29.1535 20.9888 29.1992 20.9551 29.4555C20.975 29.8875 20.6081 30.2357 19.8546 30.4988C19.7956 30.6483 19.9076 30.7368 20.1913 30.7638C20.651 30.7065 21.0063 30.5968 21.2575 30.4357C21.019 31.4233 21.4805 32.1298 22.643 32.5567C24.667 33.0268 25.8416 33.3563 26.1668 33.548C26.4928 33.3563 27.6668 33.0268 29.6913 32.5567C30.8533 32.1298 31.3153 31.4233 31.0763 30.4357C31.3275 30.5968 31.6828 30.7065 32.1425 30.7638C32.4268 30.7368 32.5388 30.6483 32.4798 30.4988C31.7256 30.2357 31.3588 29.8875 31.3793 29.4555C31.3455 29.1992 31.213 29.1535 30.9816 29.3177C30.9491 29.3317 30.9058 29.3088 30.8521 29.2485C29.7781 28.018 29.2065 27.2142 29.1348 26.839C29.121 26.1695 29.0853 25.6853 29.0275 25.3868C29.0161 23.987 28.4046 23.338 27.1921 23.4388C26.7523 23.44 26.5753 23.2548 26.659 22.8855C26.8813 22.6433 27.0258 22.3555 27.091 22.0213C27.2831 21.9815 27.4096 21.8302 27.4698 21.5652C27.6078 21.2687 27.5518 21.2153 27.3041 21.404C27.4638 21.0235 27.424 20.5915 27.1981 20.2438C26.9728 19.8957 26.5885 19.6758 26.1668 19.6523Z" fill="white"/>
<path fill-rule="evenodd" clip-rule="evenodd" d="M28.5377 37.0099C29.1329 37.2907 29.5942 37.4121 29.9202 37.3751C29.5859 37.0779 29.1785 36.8697 28.7363 36.7712C28.7803 36.9131 28.7135 36.9929 28.5377 37.0099ZM31.5368 33.1566C30.4424 32.6752 29.9177 32.7491 28.9485 33.2486C28.2967 33.5832 27.7298 33.7399 27.2485 33.7152C28.4774 34.5296 29.9063 34.3431 31.5368 33.1566ZM32.9193 33.9544C31.8754 33.2286 31.1285 34.3801 29.8267 34.5934C30.8417 35.2107 31.4629 33.9251 32.9193 33.9544ZM26.6517 36.7712C27.0673 36.7514 27.5124 36.7889 27.9865 36.8851C27.8257 35.1767 26.8842 34.1854 25.1632 33.9092C25.6457 34.4826 25.7945 35.0864 25.6088 35.7219C25.6198 36.3903 25.9674 36.7396 26.6517 36.7712ZM21.9827 35.3139C22.9885 35.2997 23.9127 35.6029 24.7535 36.2237C24.9945 34.6702 24.6125 33.8764 23.6042 33.8401C22.0458 33.9532 21.273 34.2404 21.2875 34.7019C21.2929 34.9111 21.7472 35.3174 21.9827 35.3139ZM24.9879 37.3071C24.5187 36.5667 23.671 35.9746 22.7495 36.0591C21.9808 36.1299 21.3405 36.0326 20.8285 35.7671C21.6122 37.0439 22.9988 37.5569 24.9879 37.3071ZM25.7662 38.5897C25.0728 37.1841 24.0717 38.3382 22.7265 37.7456C23.0585 38.7527 24.6848 37.8131 25.7662 38.5897ZM19.7798 38.9374C20.82 37.8036 20.5665 36.4506 19.0183 34.8778C19.0485 35.6239 18.9213 36.1686 18.6363 36.5127C18.4105 36.7841 18.4443 37.0732 18.666 37.2842C19.2478 37.8376 19.5727 38.0902 19.7798 38.9374ZM16.5691 37.6489C16.8137 37.0139 17.2853 37.0234 17.6697 36.5714C18.4907 35.6071 18.4992 34.8302 17.6932 34.2392C16.4733 33.6091 15.633 33.4919 15.1746 33.8864C14.909 34.5089 15.6529 34.7793 15.6469 35.3402C15.6457 35.4029 15.6384 35.4639 15.6246 35.5231C15.4306 36.3469 15.9409 37.1136 16.5691 37.6489ZM14.3542 32.9056C14.977 32.7256 15.5427 32.6951 16.0541 32.8142C15.5107 31.7009 14.468 31.0854 12.9253 30.9669C13.7614 31.6101 14.2379 32.2561 14.3542 32.9056ZM20.0135 34.1484C20.4603 33.7411 20.9604 33.4907 21.5133 33.3957C20.4014 32.7737 19.4093 32.6517 18.537 33.0311C18.8985 33.5809 19.3907 33.9537 20.0135 34.1484ZM12.5392 29.9206C11.2887 29.6132 10.4116 28.6876 9.86106 27.4114C10.3665 28.9537 11.2598 29.7897 12.5392 29.9206ZM31.6424 32.4037C33.003 31.5836 34.6114 31.0877 36.4674 30.9147C37.8347 30.5156 39.0117 29.6326 39.999 28.2656C39.7352 29.0962 39.0822 29.9351 38.0414 30.7834C37.7335 31.0782 37.4328 31.2752 37.142 31.3744C37.7227 31.7021 38.3004 31.9137 38.8739 32.0088C38.8985 32.0139 38.9179 32.0321 38.9225 32.0556C38.9285 32.0796 38.9184 32.1042 38.8974 32.1182C38.8773 32.1312 38.8504 32.1317 38.8292 32.1182C37.7967 31.9636 36.8969 31.9201 36.13 31.9869C34.6717 31.9922 33.4567 32.2989 32.485 32.9067C32.9404 33.5276 33.6307 33.9069 34.5554 34.0448C35.5909 34.1491 36.5137 34.1344 37.322 34.0012C36.4667 34.3073 35.5367 34.4462 34.5325 34.4176C35.0609 35.0513 35.3975 35.6932 35.5445 36.3434C34.0777 34.5247 32.788 34.0653 31.6754 34.9644C32.8855 35.7359 33.5235 36.6921 33.5874 37.8324C31.4622 34.0282 29.9297 36.2461 28.1889 34.9644C28.3324 35.6047 28.869 36.1487 29.7997 36.5977C31.2924 37.4466 31.1569 38.1982 33.1074 37.7626C32.3809 38.1887 31.5405 38.3669 30.5882 38.2991C30.9864 38.6461 31.2947 39.0646 31.5145 39.5536C29.8509 38.0926 27.957 37.4279 25.8319 37.5581C25.9914 38.6203 26.9879 39.5706 28.819 40.4089C28.0744 40.3631 27.4342 40.1474 26.898 39.7581C27.0282 40.1362 27.0402 40.5696 26.9328 41.0578C26.5107 39.3724 25.6089 38.6426 24.2258 38.8694C24.7764 39.8062 24.8777 40.7377 24.5307 41.6627C24.3072 39.9392 23.6982 38.9204 22.7037 38.6068C21.9308 38.2949 21.376 37.8769 21.0393 37.3522C20.9044 37.8752 21.1543 38.6051 21.7893 39.5419C22.1339 40.1164 22.4067 40.7852 22.6092 41.5491C22.6048 41.6112 22.5604 41.6646 22.4977 41.6811C22.4343 41.6974 22.3688 41.6727 22.3327 41.6213C21.876 40.5238 21.355 39.6977 20.77 39.1426C19.6773 39.4122 18.9863 40.0161 18.696 40.9564C18.6678 40.9916 18.6208 41.0098 18.5743 41.0033C18.528 40.9958 18.4895 40.9641 18.4732 40.9217C18.5533 40.3402 18.8105 39.7969 19.2112 39.3596C18.9943 38.4942 18.6333 37.9179 18.128 37.6307C17.5028 37.2749 16.9697 37.8944 16.8793 38.4707C17.2142 38.8601 17.4215 39.6092 17.501 40.7167C17.4697 40.7606 17.4172 40.7869 17.3623 40.7846C17.3063 40.7822 17.257 40.7519 17.2305 40.7049C16.9823 39.5869 16.6895 38.9104 16.3516 38.6754C16.3583 39.1421 16.1547 39.5296 15.7426 39.8379C15.7288 39.8654 15.6993 39.8812 15.6686 39.8784C15.6372 39.8761 15.6113 39.8554 15.6017 39.8267C15.5914 39.7981 15.6017 39.7669 15.6252 39.7471C16.1607 38.3278 16.036 37.4272 15.2511 37.0444C15.0849 37.9302 14.6795 38.6747 14.0319 39.2797C14.862 37.1494 14.8969 35.6902 14.1373 34.9012C14.0156 35.3279 13.7693 35.6504 13.3988 35.8696C13.2259 35.9717 13.0488 36.0619 13.0717 36.2237C13.2115 37.1997 13.2548 37.5979 13.1181 38.6414C13.0488 37.5639 12.8802 36.9067 12.6145 36.6688C12.2971 36.9266 12.2543 37.4666 12.4856 38.2879C12.1067 37.8036 11.9573 37.1857 12.0748 36.5889C12.3043 35.9289 12.7133 35.3407 13.2579 34.8894C13.4976 34.7113 13.5904 34.4029 13.488 34.1272C13.3868 33.8517 13.1133 33.6712 12.8133 33.6812C11.617 34.4902 11.0056 35.8966 11.2429 37.2954C10.8532 36.6734 10.7514 35.9194 10.9622 35.2201C10.6134 35.5666 10.1948 35.8386 9.73216 36.0186C10.608 35.2459 11.1273 34.4544 11.2905 33.6466C11.6007 32.9696 11.4917 32.1799 11.0086 31.6059C11.0267 32.3487 10.7532 32.8809 10.1888 33.2016C9.65326 33.4994 9.23881 34.2597 8.94726 35.4827C8.71776 34.3852 9.04606 33.0926 9.93151 31.6059C8.95206 32.3686 8.04251 32.6722 7.20156 32.5181C8.91291 31.6909 9.77976 30.8884 9.80381 30.1104C7.85156 29.8307 6.66066 28.8114 6.23356 27.0514C4.86016 26.4459 3.86021 25.2986 3.23316 23.6107C3.57951 24.4227 4.51561 25.2881 6.04381 26.2067C5.82036 25.5829 5.48241 25.0324 5.03181 24.5557C0.486919 20.3442 3.55481 19.7739 2.48981 17.3586C4.05721 19.7229 0.787519 20.2124 5.49866 24.0564C4.98666 22.6201 4.73606 21.1087 4.75836 19.5892C4.99506 21.5689 5.59326 23.5206 6.55161 25.4439C6.68656 25.6779 6.81966 25.9317 6.95161 26.2067C6.98051 26.2676 7.01061 26.3286 7.03896 26.3919C7.26726 27.4636 7.84611 28.1524 8.77921 28.4572C7.67081 26.4171 7.01726 24.1971 6.83051 21.9401C6.75946 21.0841 6.75641 20.2229 6.82026 19.3652C6.29561 16.2224 4.23066 12.1047 1.57422 10.1824C3.12231 10.4275 4.67161 12.2237 5.87276 14.1571C6.06971 11.6451 6.72151 9.52933 7.89491 8.85637C6.91246 10.4269 6.06431 13.2866 7.26001 16.6258C7.53411 15.3941 7.85936 14.5798 8.42321 13.4126C8.48281 13.2895 8.54486 13.167 8.60811 13.0444C8.70451 12.2935 9.19361 9.43498 9.47131 7.88378C9.50746 6.54367 9.16051 5.22053 8.47016 4.06095C8.80691 4.37398 9.08761 4.731 9.30806 5.11732C9.52311 5.48373 9.68936 5.87653 9.80141 6.28572C10.3092 4.42088 11.1965 3.28943 12.4639 2.89138C13.8801 2.18143 15.5951 1.91705 17.607 2.09822C13.8349 2.07768 10.0635 4.13185 10.3635 8.21035C12.0097 6.8221 13.5187 5.85307 14.2427 4.6243C13.3301 7.56487 10.7164 7.0109 9.70686 11.2089C12.5892 7.02497 17.2828 4.27198 22.5302 3.8118C19.0828 4.6677 16.7878 5.74812 15.6475 7.05017C16.707 6.83733 17.5738 6.93523 18.2497 7.34327C17.3082 7.10702 16.3992 7.14692 15.5216 7.46462C14.115 7.94358 12.9229 8.93432 11.9435 10.4357C13.3747 9.3564 14.7433 8.86162 16.0474 8.95018C17.7962 9.37285 19.1725 9.08793 20.1773 8.09778C19.4003 9.34705 18.1407 9.76913 16.3986 9.36462C15.3517 9.29427 14.0421 9.7486 12.4693 10.7282C10.6086 12.0989 9.68216 13.3088 9.69121 14.3576C11.2682 13.1031 13.2958 12.1692 15.7728 11.5566C17.5455 11.1855 19.1303 10.7229 20.5273 10.1678C22.6 9.13543 23.6758 7.74718 23.756 6.00373C24.0643 7.15683 23.4548 8.44777 21.9297 9.87585C25.2072 8.84872 27.8432 8.77602 29.837 9.65658C27.6944 9.0129 24.7655 9.29723 21.0525 10.509C19.5918 11.2025 18.1823 11.7383 16.8233 12.117C14.2843 12.6341 12.0067 13.7632 9.99176 15.5025C8.81836 16.9113 7.66961 20.2083 8.28406 22.1564C8.70211 23.8997 8.91111 25.3607 8.90991 26.5409C9.09301 25.0031 8.97676 23.4854 8.55991 21.9864C7.81176 19.2744 10.5791 15.7523 13.044 14.2603C15.2439 13.1242 18.1473 12.9459 21.7532 13.7245C25.1348 13.6418 27.463 12.7566 28.7359 11.0694C28.2557 12.3409 26.654 13.3071 23.9302 13.9684C27.5847 15.132 30.9297 14.3201 33.9669 11.5325C31.5615 14.19 28.9087 15.2458 26.0077 14.6988C23.2698 14.4033 21.1923 14.1594 19.7762 13.9684C21.3995 15.5412 23.235 16.2635 25.2823 16.1362C28.0932 16.1468 29.8695 16.7313 30.6129 17.8897C29.1424 16.8849 27.457 16.4464 25.5577 16.5736C23.4742 16.7618 21.4555 16.0876 19.5008 14.5528C18.7165 14.1823 18.0667 14.061 17.5492 14.1876C14.6945 14.19 12.3947 15.3097 10.6478 17.5467C15.7372 15.5301 16.4209 20.1204 20.8043 20.1884C17.7918 20.6467 16.7768 19.0792 14.8903 18.2714C16.6703 20.0606 15.7571 21.7431 18.2817 22.3821C14.659 21.9622 16.1541 20.1456 13.6777 17.9084C12.1477 17.6394 10.9008 17.8422 9.98756 18.7679C7.82986 20.9546 11.4351 28.9996 14.5126 29.9867C15.6908 30.6867 16.5896 31.2864 17.2077 31.7882C20.9435 31.6951 23.2633 31.9764 24.1668 32.6319C28.2743 33.9432 27.9932 31.9881 31.6424 32.4037Z" fill="white"/>
<path fill-rule="evenodd" clip-rule="evenodd" d="M23.6986 3.78801C23.2263 3.83721 22.8535 3.8138 22.5776 3.71881C23.8553 3.03761 24.71 3.07455 25.1431 3.83136C24.6846 4.67553 23.848 4.70255 22.6348 3.90931C23.0938 3.9064 23.4481 3.86596 23.6986 3.78801Z" fill="white"/>
<path fill-rule="evenodd" clip-rule="evenodd" d="M21.7086 4.88068C21.3334 4.78925 21.0551 4.66907 20.8719 4.52075C22.0459 4.35072 22.6888 4.61393 22.8014 5.31042C22.2056 5.83098 21.5586 5.62052 20.8611 4.68195C21.2116 4.80507 21.4943 4.87188 21.7086 4.88068Z" fill="white"/>
<path fill-rule="evenodd" clip-rule="evenodd" d="M20.1556 5.39297C19.7814 5.3009 19.5019 5.18134 19.3201 5.03239C20.4934 4.86242 21.1363 5.1262 21.2483 5.82205C20.6526 6.34205 20.0056 6.13339 19.3081 5.19424C19.6598 5.31735 19.9423 5.38357 20.1556 5.39297Z" fill="white"/>
<path fill-rule="evenodd" clip-rule="evenodd" d="M20.412 7.53819C20.2721 7.88876 20.115 8.14319 19.942 8.30207C19.912 7.14774 20.2583 6.55802 20.9835 6.53516C21.4408 7.17354 21.1486 7.77327 20.106 8.33196C20.274 8.00777 20.3753 7.74282 20.412 7.53819Z" fill="white"/>
<path fill-rule="evenodd" clip-rule="evenodd" d="M23.8187 5.86622C23.8125 6.24197 23.756 6.53336 23.6494 6.74149C23.2102 5.66866 23.3259 4.99856 23.9969 4.73242C24.6535 5.17739 24.5927 5.83806 23.8144 6.71506C23.8565 6.35396 23.8584 6.07079 23.8187 5.86622Z" fill="white"/>
<path fill-rule="evenodd" clip-rule="evenodd" d="M22.4912 7.50743C22.4852 7.88318 22.4292 8.17456 22.3225 8.38205C21.8833 7.30928 21.9997 6.63916 22.6702 6.37305C23.3272 6.81858 23.2658 7.47925 22.487 8.35568C22.5292 7.99456 22.531 7.71141 22.4912 7.50743Z" fill="white"/>
<path fill-rule="evenodd" clip-rule="evenodd" d="M24.6543 7.00637C24.3591 7.24909 24.0971 7.40032 23.8669 7.45896C24.4066 6.43012 25.0006 6.07486 25.6481 6.39081C25.7368 7.16407 25.1861 7.55452 23.9953 7.56212C24.3024 7.35521 24.5218 7.16932 24.6543 7.00637Z" fill="white"/>
<path fill-rule="evenodd" clip-rule="evenodd" d="M30.6999 9.97774C30.3264 9.88101 30.0499 9.75673 29.8686 9.60666C31.0444 9.45188 31.6841 9.72272 31.7866 10.421C31.1842 10.9327 30.5409 10.7158 29.8547 9.76846C30.2047 9.89566 30.4866 9.96544 30.6999 9.97774Z" fill="white"/>
<path fill-rule="evenodd" clip-rule="evenodd" d="M29.475 8.54434C29.1816 8.7888 28.9196 8.94067 28.6895 9.00102C29.2243 7.96985 29.8165 7.61107 30.4658 7.92352C30.558 8.69737 30.0086 9.09017 28.8183 9.10305C29.125 8.89494 29.3443 8.70852 29.475 8.54434Z" fill="white"/>
<path fill-rule="evenodd" clip-rule="evenodd" d="M27.4976 8.3373C27.2043 8.58235 26.9428 8.73419 26.7126 8.79399C27.2476 7.76282 27.8398 7.4034 28.4891 7.71707C28.5813 8.4903 28.032 8.88309 26.8416 8.89599C27.1481 8.68785 27.3675 8.50144 27.4976 8.3373Z" fill="white"/>
<path fill-rule="evenodd" clip-rule="evenodd" d="M23.9672 8.70133C23.6719 8.94463 23.4094 9.09528 23.1792 9.15334C23.7189 8.12568 24.3129 7.76981 24.9604 8.08641C25.049 8.86021 24.4984 9.24949 23.3082 9.25708C23.6154 9.05018 23.8345 8.86551 23.9672 8.70133Z" fill="white"/>
<path fill-rule="evenodd" clip-rule="evenodd" d="M28.5509 10.0993C28.2371 9.88013 28.0226 9.66966 27.9069 9.4668C29.0641 9.72475 29.5634 10.1984 29.4069 10.8873C28.6581 11.1599 28.1341 10.7348 27.8364 9.61336C28.1173 9.85316 28.3558 10.015 28.5509 10.0993Z" fill="white"/>
<path fill-rule="evenodd" clip-rule="evenodd" d="M26.5502 10.1618C26.2352 9.94315 26.0214 9.73211 25.9064 9.5293C27.0629 9.78783 27.5635 10.2609 27.4062 10.9497C26.6562 11.2223 26.1322 10.7967 25.8347 9.67585C26.1166 9.91501 26.3546 10.0768 26.5502 10.1618Z" fill="white"/>
<path fill-rule="evenodd" clip-rule="evenodd" d="M34.619 10.8666C34.372 11.1556 34.1413 11.3491 33.9238 11.4464C34.2713 10.3414 34.793 9.88997 35.487 10.0916C35.7135 10.8385 35.24 11.3169 34.0695 11.5261C34.3352 11.27 34.5183 11.0496 34.619 10.8666Z" fill="white"/>
<path fill-rule="evenodd" clip-rule="evenodd" d="M32.7349 11.4404C32.6307 11.8027 32.4999 12.0712 32.3427 12.2447C32.1987 11.098 32.486 10.479 33.2047 10.3887C33.7234 10.9826 33.4909 11.6063 32.5084 12.26C32.6439 11.9217 32.7199 11.6479 32.7349 11.4404Z" fill="white"/>
<path fill-rule="evenodd" clip-rule="evenodd" d="M34.2822 12.4916C33.9292 12.6451 33.6341 12.719 33.3967 12.7132C34.2087 11.8707 34.8809 11.6902 35.4127 12.1685C35.2767 12.9365 34.6357 13.1622 33.4901 12.8468C33.8442 12.7313 34.1081 12.6129 34.2822 12.4916Z" fill="white"/>
<path fill-rule="evenodd" clip-rule="evenodd" d="M32.8749 13.7988C32.4887 13.8029 32.1875 13.7561 31.9712 13.6593C33.0609 13.2021 33.7519 13.2964 34.044 13.9419C33.6042 14.5926 32.9247 14.551 32.0025 13.8176C32.3754 13.8492 32.6657 13.8434 32.8749 13.7988Z" fill="white"/>
<path fill-rule="evenodd" clip-rule="evenodd" d="M31.4042 14.684C31.0182 14.6881 30.7169 14.6412 30.5007 14.5445C31.5904 14.0872 32.2814 14.1804 32.5734 14.8265C32.1349 15.4778 31.4542 15.4367 30.5326 14.7028C30.9049 14.7338 31.1946 14.7286 31.4042 14.684Z" fill="white"/>
<path fill-rule="evenodd" clip-rule="evenodd" d="M31.1485 12.5829C31.0263 12.9388 30.8823 13.2008 30.716 13.3668C30.6312 12.2148 30.9498 11.6109 31.672 11.5547C32.1593 12.1732 31.8962 12.7846 30.8805 13.3896C31.0342 13.0584 31.1233 12.7887 31.1485 12.5829Z" fill="white"/>
<path fill-rule="evenodd" clip-rule="evenodd" d="M29.1345 11.9943C28.773 12.1286 28.4749 12.186 28.2375 12.1685C29.0965 11.3711 29.7777 11.2263 30.2814 11.7328C30.1019 12.4915 29.4489 12.6826 28.3237 12.3062C28.6839 12.2101 28.9537 12.1057 29.1345 11.9943Z" fill="white"/>
<path fill-rule="evenodd" clip-rule="evenodd" d="M27.2498 13.5958C26.889 13.7306 26.5896 13.788 26.3528 13.7699C27.2118 12.9726 27.8938 12.8278 28.3973 13.3349C28.2171 14.0935 27.5648 14.2846 26.4383 13.9082C26.7998 13.8121 27.0696 13.7078 27.2498 13.5958Z" fill="white"/>
<path fill-rule="evenodd" clip-rule="evenodd" d="M25.8731 12.2842C25.6947 12.6172 25.5104 12.8534 25.3201 12.993C25.4201 11.8422 25.8309 11.2935 26.5526 11.3474C26.9362 12.031 26.5784 12.5949 25.4797 13.0411C25.6832 12.7362 25.8146 12.4835 25.8731 12.2842Z" fill="white"/>
<path fill-rule="evenodd" clip-rule="evenodd" d="M31.2364 18.3598C30.9189 18.1463 30.6998 17.9394 30.5823 17.7383C31.7424 17.9764 32.2514 18.4413 32.1074 19.1324C31.3629 19.4179 30.8316 19.0023 30.5129 17.8861C30.7984 18.1206 31.0399 18.2788 31.2364 18.3598Z" fill="white"/>
<path fill-rule="evenodd" clip-rule="evenodd" d="M30.5828 16.7808C30.198 16.8153 29.8937 16.7931 29.6702 16.7133C30.719 16.1711 31.4147 16.2103 31.7598 16.83C31.3768 17.5135 30.6955 17.527 29.7148 16.8687C30.0888 16.871 30.378 16.8418 30.5828 16.7808Z" fill="white"/>
<path fill-rule="evenodd" clip-rule="evenodd" d="M29.571 18.103C29.3549 17.7898 29.2295 17.5202 29.1947 17.291C30.1855 17.9265 30.4837 18.5403 30.0897 19.1323C29.2899 19.1323 28.9519 18.556 29.076 17.4035C29.253 17.7237 29.418 17.957 29.571 18.103Z" fill="white"/>
<path fill-rule="evenodd" clip-rule="evenodd" d="M27.818 17.5412C27.6023 17.2294 27.4763 16.9591 27.442 16.7305C28.433 17.3661 28.7318 17.9792 28.3372 18.5712C27.5373 18.5712 27.1987 17.9956 27.3228 16.843C27.4998 17.1631 27.6655 17.3959 27.818 17.5412Z" fill="white"/>
<path fill-rule="evenodd" clip-rule="evenodd" d="M28.9211 15.8687C28.5777 16.041 28.2869 16.1313 28.0496 16.1389C28.8121 15.2531 29.4729 15.0356 30.0314 15.4846C29.9404 16.2579 29.3127 16.5188 28.1507 16.2673C28.4977 16.1325 28.7549 15.9994 28.9211 15.8687Z" fill="white"/>
<path fill-rule="evenodd" clip-rule="evenodd" d="M26.2807 15.5482C25.9373 15.7205 25.6465 15.8108 25.4097 15.8184C26.1717 14.9332 26.8313 14.7151 27.391 15.1642C27.2987 15.9374 26.6723 16.1983 25.5108 15.9463C25.8573 15.812 26.1138 15.6789 26.2807 15.5482Z" fill="white"/>
<path fill-rule="evenodd" clip-rule="evenodd" d="M23.6757 15.327C23.3324 15.5 23.0425 15.5903 22.8047 15.5979C23.5674 14.7121 24.2275 14.4946 24.7865 14.9436C24.6949 15.7169 24.0685 15.9778 22.9059 15.7257C23.2535 15.5914 23.51 15.4584 23.6757 15.327Z" fill="white"/>
<path fill-rule="evenodd" clip-rule="evenodd" d="M21.7971 16.7877C21.5169 16.528 21.3349 16.2912 21.2506 16.0742C22.3591 16.4869 22.7868 17.0239 22.5319 17.6841C21.7506 17.8522 21.2934 17.3611 21.1584 16.2096C21.4031 16.4846 21.6156 16.6775 21.7971 16.7877Z" fill="white"/>
<path fill-rule="evenodd" clip-rule="evenodd" d="M23.8235 17.4211C23.5434 17.1619 23.3615 16.9239 23.2772 16.707C24.3855 17.1197 24.8132 17.6567 24.5584 18.3174C23.777 18.4851 23.3199 17.9932 23.1855 16.8425C23.4295 17.1174 23.6422 17.3109 23.8235 17.4211Z" fill="white"/>
<path fill-rule="evenodd" clip-rule="evenodd" d="M26.2024 17.5416C25.9222 17.2824 25.7397 17.0444 25.6554 16.8281C26.7637 17.2408 27.1909 17.7773 26.9366 18.4379C26.1559 18.6056 25.6976 18.1143 25.5632 16.9629C25.8084 17.2384 26.0211 17.4319 26.2024 17.5416Z" fill="white"/>
<path fill-rule="evenodd" clip-rule="evenodd" d="M24.2118 10.5472C23.898 10.3279 23.683 10.1169 23.5685 9.91406C24.725 10.1726 25.225 10.6463 25.0678 11.3339C24.3185 11.6071 23.7956 11.1821 23.4973 10.06C23.7781 10.2998 24.0173 10.4622 24.2118 10.5472Z" fill="white"/>
<path fill-rule="evenodd" clip-rule="evenodd" d="M21.9675 11.2614C21.6543 11.0428 21.4387 10.8323 21.3242 10.6289C22.4813 10.8874 22.9807 11.3605 22.8242 12.0494C22.0747 12.322 21.5513 11.8969 21.2532 10.7755C21.5345 11.0141 21.773 11.177 21.9675 11.2614Z" fill="white"/>
<path fill-rule="evenodd" clip-rule="evenodd" d="M19.888 12.1286C19.5737 11.9094 19.3592 11.6989 19.2442 11.4961C20.4 11.754 20.9007 12.2277 20.7435 12.916C19.9935 13.188 19.47 12.7641 19.1719 11.642C19.4539 11.8812 19.6917 12.0442 19.888 12.1286Z" fill="white"/>
<path fill-rule="evenodd" clip-rule="evenodd" d="M18.9373 7.45832C18.6258 7.41375 18.3897 7.33928 18.2295 7.23438C19.165 7.00105 19.7088 7.16227 19.8588 7.71685C19.421 8.18643 18.8788 8.06973 18.233 7.36567C18.5282 7.4372 18.7632 7.46828 18.9373 7.45832Z" fill="white"/>
<path fill-rule="evenodd" clip-rule="evenodd" d="M17.4904 7.82075C17.2279 7.6519 17.0465 7.48602 16.947 7.32422C17.8959 7.50124 18.318 7.87175 18.2109 8.43747C17.6097 8.68015 17.1705 8.34954 16.894 7.44552C17.1302 7.63199 17.3284 7.75744 17.4904 7.82075Z" fill="white"/>
<path fill-rule="evenodd" clip-rule="evenodd" d="M17.9705 6.28149C17.7095 6.45325 17.4825 6.5529 17.2915 6.5805C17.8222 5.79492 18.3348 5.5575 18.8307 5.86879C18.8318 6.5025 18.3505 6.77159 17.3862 6.67485C17.6535 6.53359 17.8475 6.40342 17.9705 6.28149Z" fill="white"/>
<path fill-rule="evenodd" clip-rule="evenodd" d="M21.7135 2.95828C21.4635 3.35049 21.2153 3.62309 20.9695 3.77666C21.2008 2.37674 21.7568 1.74303 22.6356 1.87432C23.0386 2.74549 22.5471 3.40383 21.16 3.84994C21.4381 3.49531 21.6225 3.19808 21.7135 2.95828Z" fill="white"/>
<path fill-rule="evenodd" clip-rule="evenodd" d="M19.3839 3.44985C19.1334 3.84264 18.8851 4.11524 18.6394 4.26827C18.8707 2.86889 19.4267 2.23519 20.3056 2.36652C20.7086 3.23764 20.2169 3.89602 18.8291 4.34155C19.1074 3.98687 19.2931 3.68965 19.3839 3.44985Z" fill="white"/>
<path fill-rule="evenodd" clip-rule="evenodd" d="M17.1443 4.35295C16.8937 4.74569 16.6461 5.01829 16.4004 5.17074C16.6317 3.77135 17.1872 3.13707 18.0665 3.26899C18.4702 4.14069 17.978 4.79907 16.5901 5.2446C16.8685 4.88992 17.0533 4.59271 17.1443 4.35295Z" fill="white"/>
<path fill-rule="evenodd" clip-rule="evenodd" d="M19.8857 16.0249C19.7977 15.6585 19.7783 15.363 19.829 15.1367C20.5247 16.0724 20.5808 16.7489 19.997 17.1668C19.2488 16.8908 19.1417 16.2353 19.6767 15.2006C19.7267 15.5617 19.7958 15.8361 19.8857 16.0249Z" fill="white"/>
<path fill-rule="evenodd" clip-rule="evenodd" d="M18.1779 15.2436C18.0894 14.8772 18.0707 14.5812 18.1214 14.3555C18.8171 15.2905 18.8731 15.9676 18.2894 16.3844C17.5407 16.1095 17.4341 15.4547 17.9689 14.4194C18.0184 14.7799 18.0882 15.0548 18.1779 15.2436Z" fill="white"/>
<path fill-rule="evenodd" clip-rule="evenodd" d="M16.4759 15.3653C16.3873 14.9984 16.3687 14.7035 16.4193 14.4766C17.115 15.4122 17.171 16.0887 16.5873 16.5067C15.8392 16.2306 15.732 15.5758 16.2669 14.5411C16.3163 14.901 16.3861 15.176 16.4759 15.3653Z" fill="white"/>
<path fill-rule="evenodd" clip-rule="evenodd" d="M21.6325 19.8364C21.2975 20.0241 21.0113 20.1278 20.7751 20.1466C21.4926 19.2261 22.1415 18.9788 22.7221 19.4003C22.6691 20.1776 22.0558 20.4666 20.8825 20.2696C21.2221 20.1184 21.4721 19.9743 21.6325 19.8364Z" fill="white"/>
<path fill-rule="evenodd" clip-rule="evenodd" d="M20.2125 21.0641C19.8865 20.8613 19.6607 20.6631 19.5348 20.4668C20.704 20.6631 21.2298 21.1093 21.1118 21.8045C20.3787 22.117 19.8318 21.7201 19.4722 20.6161C19.7667 20.8401 20.013 20.9896 20.2125 21.0641Z" fill="white"/>
<path fill-rule="evenodd" clip-rule="evenodd" d="M20.144 19.2849C19.862 19.5417 19.6072 19.7059 19.3813 19.7762C19.8675 18.7222 20.4415 18.3375 21.1047 18.6219C21.233 19.3904 20.703 19.8072 19.5145 19.8729C19.8102 19.6507 20.021 19.4549 20.144 19.2849Z" fill="white"/>
<path fill-rule="evenodd" clip-rule="evenodd" d="M18.4922 18.553C18.2097 18.8098 17.9562 18.974 17.729 19.0438C18.2152 17.9897 18.7903 17.6045 19.453 17.89C19.5813 18.658 19.0518 19.0755 17.8633 19.141C18.1592 18.9183 18.3687 18.723 18.4922 18.553Z" fill="white"/>
<path fill-rule="evenodd" clip-rule="evenodd" d="M19.2287 22.4892C18.8427 22.4829 18.5432 22.4272 18.3306 22.3227C19.4347 21.8984 20.1221 22.0132 20.3932 22.6675C19.9342 23.3047 19.2552 23.2432 18.3566 22.4829C18.7276 22.5257 19.0186 22.5274 19.2287 22.4892Z" fill="white"/>
<path fill-rule="evenodd" clip-rule="evenodd" d="M17.6134 23.0992C17.373 22.803 17.226 22.544 17.1737 22.3184C18.2115 22.8764 18.5585 23.4662 18.2129 24.0859C17.4152 24.1467 17.0322 23.598 17.0635 22.4397C17.2659 22.745 17.449 22.9655 17.6134 23.0992Z" fill="white"/>
<path fill-rule="evenodd" clip-rule="evenodd" d="M15.8684 22.6543C15.8251 22.2803 15.8431 21.9838 15.9209 21.7656C16.4973 22.7751 16.4702 23.454 15.8389 23.8005C15.1293 23.4405 15.104 22.777 15.7618 21.8113C15.766 22.1755 15.8016 22.4563 15.8684 22.6543Z" fill="white"/>
<path fill-rule="evenodd" clip-rule="evenodd" d="M14.8132 21.498C14.959 21.1498 15.121 20.8977 15.2975 20.7423C15.3047 21.8978 14.9469 22.4805 14.2229 22.4905C13.7777 21.8438 14.0813 21.2495 15.1348 20.709C14.9602 21.0308 14.8529 21.2935 14.8132 21.498Z" fill="white"/>
<path fill-rule="evenodd" clip-rule="evenodd" d="M14.1871 20.0377C14.3341 19.6895 14.4949 19.4375 14.6714 19.282C14.6792 20.437 14.3214 21.0204 13.5968 21.0302C13.1516 20.383 13.4558 19.7885 14.5088 19.248C14.3347 19.5705 14.2268 19.8332 14.1871 20.0377Z" fill="white"/>
<path fill-rule="evenodd" clip-rule="evenodd" d="M17.5341 21.1389C17.1481 21.1431 16.8468 21.0956 16.6318 20.9977C17.7215 20.5422 18.4125 20.6366 18.7033 21.2826C18.2643 21.9339 17.5836 21.8917 16.662 21.1571C17.0348 21.1894 17.3251 21.1824 17.5341 21.1389Z" fill="white"/>
<path fill-rule="evenodd" clip-rule="evenodd" d="M12.4406 11.7235C12.0943 12.0261 11.7828 12.2166 11.5076 12.2957C12.1226 11.0371 12.8262 10.588 13.6183 10.9486C13.7514 11.8777 13.1008 12.3666 11.666 12.4153C12.0298 12.1562 12.287 11.9252 12.4406 11.7235Z" fill="white"/>
<path fill-rule="evenodd" clip-rule="evenodd" d="M14.7053 10.3351C14.3277 10.3146 14.0361 10.2495 13.8325 10.1405C14.9282 9.76465 15.5956 9.90067 15.8366 10.5502C15.3631 11.1564 14.7023 11.0731 13.853 10.2982C14.2138 10.3521 14.4975 10.3644 14.7053 10.3351Z" fill="white"/>
<path fill-rule="evenodd" clip-rule="evenodd" d="M17.0987 9.98336C16.748 9.84736 16.4926 9.69607 16.3342 9.53019C17.4955 9.50964 18.084 9.84439 18.1022 10.535C17.457 10.9653 16.8565 10.6821 16.3022 9.68497C16.6269 9.84794 16.8927 9.94759 17.0987 9.98336Z" fill="white"/>
<path fill-rule="evenodd" clip-rule="evenodd" d="M19.8625 9.40188C19.4904 9.4705 19.1922 9.47633 18.9675 9.41887C19.9355 8.79572 20.6185 8.77052 21.0132 9.34208C20.7065 10.0432 20.0439 10.1183 19.0259 9.5666C19.3904 9.53438 19.6687 9.47985 19.8625 9.40188Z" fill="white"/>
<path fill-rule="evenodd" clip-rule="evenodd" d="M17.4654 12.6956C17.1117 12.8269 16.8196 12.8826 16.5872 12.8638C17.4299 12.0865 18.0972 11.9457 18.5887 12.4434C18.4111 13.1857 17.7726 13.3703 16.6714 12.9992C17.0239 12.9066 17.2889 12.8046 17.4654 12.6956Z" fill="white"/>
<path fill-rule="evenodd" clip-rule="evenodd" d="M15.6723 8.26505C15.4639 8.49483 15.2711 8.6467 15.0928 8.72057C15.403 7.83008 15.8379 7.4748 16.3975 7.65475C16.5632 8.26855 16.1662 8.64612 15.2078 8.78855C15.4307 8.5869 15.5855 8.4122 15.6723 8.26505Z" fill="white"/>
<path fill-rule="evenodd" clip-rule="evenodd" d="M23.6458 12.6742C23.4668 13.0078 23.2825 13.2446 23.0935 13.383C23.1917 12.2322 23.6025 11.684 24.3253 11.738C24.7083 12.421 24.3505 12.9861 23.2512 13.4316C23.4555 13.1268 23.5868 12.8741 23.6458 12.6742Z" fill="white"/>
<path fill-rule="evenodd" clip-rule="evenodd" d="M14.1006 16.0044C13.7398 16.1398 13.441 16.1973 13.2043 16.1797C14.0621 15.3812 14.7434 15.2358 15.2482 15.7423C15.0693 16.5009 14.4169 16.6932 13.2905 16.3181C13.6507 16.2213 13.9199 16.1169 14.1006 16.0044Z" fill="white"/>
<path fill-rule="evenodd" clip-rule="evenodd" d="M18.2395 1.92916C17.7805 2.04521 17.4082 2.07631 17.1208 2.02239C18.2805 1.16412 19.1317 1.07794 19.675 1.76269C19.3504 2.66433 18.528 2.81084 17.207 2.20293C17.66 2.13319 18.004 2.04171 18.2395 1.92916Z" fill="white"/>
<path fill-rule="evenodd" clip-rule="evenodd" d="M16.6263 1.25409C16.3812 1.52083 16.1535 1.69669 15.9451 1.78112C16.3149 0.742894 16.8276 0.332528 17.4806 0.547677C17.6678 1.26582 17.2004 1.70433 16.0794 1.86146C16.3414 1.62755 16.5239 1.42586 16.6263 1.25409Z" fill="white"/>
<path fill-rule="evenodd" clip-rule="evenodd" d="M14.2944 1.51329C14.089 1.83396 13.8854 2.05673 13.6836 2.1816C13.8757 1.03669 14.3311 0.518459 15.051 0.627497C15.3799 1.34153 14.9757 1.87912 13.839 2.24198C14.0673 1.9524 14.2191 1.7091 14.2944 1.51329Z" fill="white"/>
<path fill-rule="evenodd" clip-rule="evenodd" d="M11.9636 2.1033C11.831 2.49084 11.675 2.77394 11.4967 2.95452C11.4016 1.70701 11.7443 1.05101 12.5274 0.988281C13.0581 1.65718 12.7738 2.32082 11.6744 2.9803C11.8401 2.61979 11.9359 2.3284 11.9636 2.1033Z" fill="white"/>
<path fill-rule="evenodd" clip-rule="evenodd" d="M16.3705 2.7458C15.9747 2.71883 15.6705 2.64613 15.4585 2.52828C16.6132 2.14955 17.312 2.30318 17.5542 2.98846C17.0488 3.6175 16.356 3.52018 15.4766 2.69421C15.8554 2.75635 16.153 2.77391 16.3705 2.7458Z" fill="white"/>
<path fill-rule="evenodd" clip-rule="evenodd" d="M14.4257 4.00027C14.3041 4.44581 14.148 4.77704 13.9589 4.99334C13.7607 3.58876 14.1023 2.82429 14.9829 2.70117C15.6299 3.41931 15.3558 4.18961 14.1625 5.00979C14.3227 4.59062 14.4107 4.25409 14.4257 4.00027Z" fill="white"/>
<path fill-rule="evenodd" clip-rule="evenodd" d="M12.8029 5.26252C12.7679 5.64767 12.6878 5.94255 12.5643 6.14712C12.1951 5.01745 12.3637 4.34033 13.0709 4.11523C13.7094 4.61767 13.5974 5.29005 12.7342 6.13188C12.8041 5.76552 12.8276 5.47588 12.8029 5.26252Z" fill="white"/>
<path fill-rule="evenodd" clip-rule="evenodd" d="M11.3011 6.23769C11.2656 6.62284 11.1867 6.91714 11.0626 7.12176C10.6927 5.99148 10.8614 5.31378 11.5686 5.08984C12.2077 5.59226 12.0957 6.26408 11.2319 7.10711C11.3029 6.73894 11.3258 6.44991 11.3011 6.23769Z" fill="white"/>
<path fill-rule="evenodd" clip-rule="evenodd" d="M14.4447 5.71957C14.17 5.99864 13.9182 6.17976 13.6899 6.26361C14.1297 5.15799 14.6965 4.73234 15.3922 4.98796C15.5675 5.76941 15.0471 6.22492 13.8327 6.35567C14.1236 6.11237 14.3278 5.90074 14.4447 5.71957Z" fill="white"/>
<path fill-rule="evenodd" clip-rule="evenodd" d="M10.1534 3.55101C10.1937 3.93266 10.1727 4.23576 10.0901 4.45853C9.5137 3.42148 9.54804 2.72854 10.1956 2.38086C10.916 2.75549 10.9353 3.43319 10.2534 4.41279C10.2522 4.04111 10.219 3.75388 10.1534 3.55101Z" fill="white"/>
<path fill-rule="evenodd" clip-rule="evenodd" d="M8.1727 3.64872C8.4209 3.94887 8.5727 4.21323 8.6281 4.44307C7.5625 3.88088 7.2041 3.28171 7.55165 2.64626C8.36545 2.57765 8.7612 3.13515 8.73955 4.3182C8.5305 4.0075 8.34135 3.78473 8.1727 3.64872Z" fill="white"/>
<path fill-rule="evenodd" clip-rule="evenodd" d="M8.25035 5.30424C8.60215 5.47717 8.8527 5.65771 9.0003 5.84476C7.79255 5.75917 7.21185 5.35641 7.26065 4.63711C7.97325 4.24957 8.5696 4.59957 9.0491 5.68647C8.7268 5.48716 8.46115 5.35991 8.25035 5.30424Z" fill="white"/>
<path fill-rule="evenodd" clip-rule="evenodd" d="M8.69806 6.90989C8.99686 7.05823 9.20893 7.21179 9.33483 7.37068C8.30838 7.29681 7.81561 6.95501 7.85716 6.34476C8.46376 6.01528 8.96976 6.31249 9.37636 7.23641C9.10286 7.06639 8.87696 6.95798 8.69806 6.90989Z" fill="white"/>
<path fill-rule="evenodd" clip-rule="evenodd" d="M8.21401 8.22892C8.08751 8.53085 7.94836 8.74949 7.79536 8.88492C7.78631 7.88245 8.09536 7.37712 8.72421 7.36719C9.11156 7.92762 8.84891 8.44352 7.93691 8.9125C8.08751 8.6346 8.18026 8.406 8.21401 8.22892Z" fill="white"/>
<path fill-rule="evenodd" clip-rule="evenodd" d="M6.87973 8.79699C6.95988 9.11358 6.97913 9.37089 6.93818 9.56671C6.32498 8.76239 6.26893 8.17618 6.77073 7.80859C7.42308 8.04018 7.52248 8.60648 7.06948 9.50988C7.02313 9.19738 6.95868 8.95996 6.87973 8.79699Z" fill="white"/>
<path fill-rule="evenodd" clip-rule="evenodd" d="M6.06757 10.3196C6.14767 10.6362 6.16697 10.8924 6.12477 11.0894C5.51217 10.2851 5.45677 9.69824 5.95852 9.33008C6.61032 9.56166 6.71032 10.1291 6.25672 11.0319C6.21032 10.7201 6.14707 10.482 6.06757 10.3196Z" fill="white"/>
<path fill-rule="evenodd" clip-rule="evenodd" d="M5.44177 12.3171C5.52187 12.6343 5.54117 12.8905 5.49962 13.0874C4.88637 12.2825 4.83037 11.6963 5.33277 11.3281C5.98452 11.5597 6.08452 12.1272 5.63092 13.03C5.58392 12.7181 5.52127 12.4801 5.44177 12.3171Z" fill="white"/>
<path fill-rule="evenodd" clip-rule="evenodd" d="M8.09721 9.65419C7.91346 9.92679 7.73276 10.115 7.55566 10.2187C7.74661 9.23383 8.15081 8.79593 8.76886 8.90498C9.03751 9.52755 8.67786 9.98421 7.68941 10.2738C7.89301 10.0282 8.02851 9.82183 8.09721 9.65419Z" fill="white"/>
<path fill-rule="evenodd" clip-rule="evenodd" d="M7.49687 11.4338C7.31317 11.7064 7.13242 11.8945 6.95532 11.9989C7.14627 11.0135 7.54987 10.5761 8.16852 10.684C8.43717 11.3071 8.07637 11.7626 7.08787 12.0534C7.29207 11.8078 7.42762 11.6014 7.49687 11.4338Z" fill="white"/>
<path fill-rule="evenodd" clip-rule="evenodd" d="M7.40394 13.1701C7.22024 13.4427 7.03954 13.6309 6.86304 13.7352C7.05279 12.7504 7.45699 12.3124 8.07559 12.4203C8.34429 13.0434 7.98404 13.499 6.99554 13.7898C7.19914 13.5447 7.33589 13.3377 7.40394 13.1701Z" fill="white"/>
<path fill-rule="evenodd" clip-rule="evenodd" d="M0.9861 10.0875C1.3186 10.1292 1.571 10.2048 1.74445 10.3138C0.75115 10.5782 0.17045 10.4164 0 9.8278C0.4572 9.32012 1.0367 9.43565 1.73785 10.1737C1.4216 10.1028 1.171 10.074 0.9861 10.0875Z" fill="white"/>
<path fill-rule="evenodd" clip-rule="evenodd" d="M1.87521 11.2813C2.20771 11.323 2.46011 11.398 2.63421 11.5076C1.64031 11.772 1.05961 11.6097 0.88916 11.0211C1.34756 10.514 1.92581 10.6283 2.62696 11.3675C2.31196 11.2972 2.06136 11.2684 1.87521 11.2813Z" fill="white"/>
<path fill-rule="evenodd" clip-rule="evenodd" d="M2.59751 9.9239C2.83301 10.156 2.98361 10.3677 3.05106 10.5576C2.10236 10.1701 1.74636 9.69407 1.98486 9.12838C2.66676 9.0029 3.04986 9.44083 3.13481 10.4427C2.93061 10.1971 2.75171 10.0247 2.59751 9.9239Z" fill="white"/>
<path fill-rule="evenodd" clip-rule="evenodd" d="M4.00947 10.9058C4.14142 11.2053 4.20342 11.4556 4.19442 11.6561C3.45527 10.9591 3.30347 10.3887 3.73722 9.94727C4.41967 10.0721 4.61187 10.6161 4.31487 11.5788C4.21732 11.2786 4.11487 11.0535 4.00947 10.9058Z" fill="white"/>
<path fill-rule="evenodd" clip-rule="evenodd" d="M3.07889 12.4748C3.39994 12.5686 3.63669 12.6824 3.78969 12.8184C2.76564 12.9221 2.21929 12.6712 2.14819 12.0639C2.68494 11.6342 3.23729 11.8394 3.80594 12.6782C3.50534 12.5587 3.26379 12.4912 3.07889 12.4748Z" fill="white"/>
<path fill-rule="evenodd" clip-rule="evenodd" d="M3.9785 13.7886C4.2996 13.8836 4.5369 13.9973 4.6893 14.1322C3.6653 14.2371 3.11895 13.985 3.04785 13.3777C3.58455 12.9491 4.13695 13.1537 4.7056 13.9926C4.4056 13.8736 4.16345 13.8056 3.9785 13.7886Z" fill="white"/>
<path fill-rule="evenodd" clip-rule="evenodd" d="M4.96789 15.6278C5.28959 15.721 5.52629 15.8353 5.67809 15.9707C4.65529 16.0751 4.10894 15.8236 4.03784 15.2156C4.57454 14.7865 5.12694 14.9923 5.69559 15.8312C5.39499 15.7122 5.15224 15.6436 4.96789 15.6278Z" fill="white"/>
<path fill-rule="evenodd" clip-rule="evenodd" d="M5.49706 17.1406C5.81876 17.2344 6.05486 17.3493 6.20726 17.4841C5.18386 17.5879 4.63691 17.3369 4.56641 16.7296C5.10311 16.3005 5.65551 16.5051 6.22416 17.3441C5.92416 17.2249 5.68201 17.157 5.49706 17.1406Z" fill="white"/>
<path fill-rule="evenodd" clip-rule="evenodd" d="M2.30624 16.8468C2.43394 17.1476 2.49359 17.399 2.48214 17.5995C1.75269 16.8925 1.60629 16.3215 2.04664 15.8848C2.72669 16.0184 2.91224 16.5654 2.60264 17.5233C2.50924 17.222 2.40924 16.9963 2.30624 16.8468Z" fill="white"/>
<path fill-rule="evenodd" clip-rule="evenodd" d="M2.04194 18.1835C2.28829 18.405 2.45034 18.6085 2.52624 18.7948C1.55944 18.452 1.18174 17.9928 1.39259 17.4166C2.06724 17.2601 2.47144 17.6798 2.60394 18.6765C2.38889 18.4413 2.20099 18.2771 2.04194 18.1835Z" fill="white"/>
<path fill-rule="evenodd" clip-rule="evenodd" d="M1.70866 19.4345C1.95506 19.6548 2.11646 19.8583 2.19296 20.0446C1.22496 19.703 0.847258 19.2428 1.05811 18.6665C1.73336 18.5105 2.13696 18.9303 2.27006 19.9268C2.05441 19.6911 1.86711 19.5271 1.70866 19.4345Z" fill="white"/>
<path fill-rule="evenodd" clip-rule="evenodd" d="M1.79719 21.005C2.11044 21.1224 2.33814 21.2542 2.47849 21.3995C1.45025 21.4277 0.925 21.1364 0.9021 20.5255C1.47015 20.138 2.00504 20.3837 2.50619 21.2619C2.21584 21.1205 1.98034 21.0344 1.79719 21.005Z" fill="white"/>
<path fill-rule="evenodd" clip-rule="evenodd" d="M3.27379 17.4252C3.17744 17.7377 3.05939 17.9681 2.92084 18.1171C2.81359 17.1204 3.07144 16.5887 3.69609 16.5195C4.13699 17.0419 3.92619 17.5794 3.06419 18.1329C3.18709 17.8402 3.25694 17.6046 3.27379 17.4252Z" fill="white"/>
<path fill-rule="evenodd" clip-rule="evenodd" d="M3.65865 18.671C3.44 18.919 3.2358 19.0832 3.04785 19.1647C3.3653 18.2115 3.8243 17.8275 4.4231 18.0115C4.608 18.6623 4.19115 19.0703 3.17195 19.235C3.4063 19.0168 3.5683 18.8287 3.65865 18.671Z" fill="white"/>
<path fill-rule="evenodd" clip-rule="evenodd" d="M3.38163 20.0907C3.19488 20.3028 3.02138 20.4428 2.85938 20.5127C3.13103 19.6978 3.52318 19.3688 4.03517 19.5267C4.19362 20.0835 3.83703 20.4323 2.96598 20.573C3.16658 20.386 3.30453 20.226 3.38163 20.0907Z" fill="white"/>
<path fill-rule="evenodd" clip-rule="evenodd" d="M3.8398 21.5885C3.8169 21.8656 3.7603 22.0791 3.67175 22.228C3.3989 21.4126 3.51815 20.9225 4.02835 20.7578C4.4922 21.1183 4.4139 21.6043 3.79465 22.2156C3.84345 21.9506 3.8591 21.7408 3.8398 21.5885Z" fill="white"/>
<path fill-rule="evenodd" clip-rule="evenodd" d="M4.85738 18.9772C4.83448 19.2557 4.77788 19.4678 4.68933 19.6168C4.41708 18.802 4.53573 18.3123 5.04533 18.1465C5.50978 18.507 5.43208 18.993 4.81163 19.6057C4.86163 19.3395 4.87668 19.1297 4.85738 18.9772Z" fill="white"/>
<path fill-rule="evenodd" clip-rule="evenodd" d="M5.43521 20.1368C5.32316 20.3936 5.20091 20.5783 5.06836 20.6924C5.07381 19.8354 5.34486 19.4069 5.88216 19.4062C6.20626 19.8894 5.97496 20.3273 5.18886 20.7183C5.32136 20.4814 5.40331 20.2874 5.43521 20.1368Z" fill="white"/>
<path fill-rule="evenodd" clip-rule="evenodd" d="M5.72281 21.5135C5.61076 21.7704 5.48851 21.9555 5.35596 22.0694C5.36141 21.2122 5.63246 20.7837 6.16976 20.7832C6.49386 21.2662 6.26256 21.7047 5.47646 22.0957C5.60896 21.8589 5.69091 21.6649 5.72281 21.5135Z" fill="white"/>
<path fill-rule="evenodd" clip-rule="evenodd" d="M6.173 22.8343C6.13685 23.1112 6.0706 23.3222 5.9748 23.4658C5.7423 22.6398 5.88385 22.1555 6.4007 22.0137C6.84645 22.3947 6.74645 22.8767 6.0977 23.46C6.15915 23.1967 6.18445 22.9892 6.173 22.8343Z" fill="white"/>
<path fill-rule="evenodd" clip-rule="evenodd" d="M2.67946 23.1201C2.91196 23.2836 3.07036 23.4412 3.15471 23.5914C2.29751 23.3949 1.92886 23.0421 2.04756 22.5326C2.60536 22.3327 2.99146 22.6497 3.20771 23.4834C2.99991 23.3046 2.82461 23.1834 2.67946 23.1201Z" fill="white"/>
<path fill-rule="evenodd" clip-rule="evenodd" d="M2.96316 24.6319C3.23301 24.7258 3.42996 24.8331 3.55526 24.9556C2.67641 25.0013 2.21981 24.7633 2.18726 24.2416C2.66436 23.8979 3.12701 24.0961 3.57516 24.8366C3.32456 24.7223 3.11976 24.6543 2.96316 24.6319Z" fill="white"/>
<path fill-rule="evenodd" clip-rule="evenodd" d="M3.74257 25.9199C4.02927 25.9358 4.24917 25.9844 4.40397 26.0659C3.57507 26.3533 3.06852 26.2513 2.88477 25.7599C3.24137 25.2986 3.74377 25.3608 4.38832 25.9469C4.11422 25.9059 3.89917 25.8971 3.74257 25.9199Z" fill="white"/>
<path fill-rule="evenodd" clip-rule="evenodd" d="M4.95042 27.0577C5.22872 26.9909 5.45397 26.9751 5.62687 27.0096C4.91907 27.5202 4.40467 27.5659 4.08057 27.1479C4.28477 26.6057 4.78352 26.5224 5.57627 26.9006C5.30217 26.9387 5.09317 26.9914 4.95042 27.0577Z" fill="white"/>
<path fill-rule="evenodd" clip-rule="evenodd" d="M4.17034 24.3004C4.32694 24.4664 4.42574 24.6148 4.46729 24.7473C3.82394 24.4593 3.59024 24.1216 3.76914 23.7383C4.24139 23.6679 4.49439 23.9786 4.52754 24.6698C4.39319 24.4969 4.27394 24.3738 4.17034 24.3004Z" fill="white"/>
</g>
</svg>
